<svg xmlns="http://www.w3.org/2000/svg" width="119" height="31" fill="none" viewBox="0 0 119 31"><g clip-path="url(#clip0_232_460)"><path fill="#670B78" d="M103.611 31H15.3894C11.3082 31.0003 7.39404 29.3676 4.50796 26.461C1.62189 23.5544 0.000322775 19.6121 4.81816e-08 15.5012C-0.000322679 11.3904 1.62062 7.44776 4.50624 4.54071C7.39186 1.63367 11.3058 0.000325072 15.387 0H103.608C107.689 0 111.603 1.63303 114.489 4.53984C117.375 7.44666 118.996 11.3891 118.996 15.5C118.996 19.6109 117.375 23.5533 114.489 26.4602C111.603 29.367 107.689 31 103.608 31H103.611ZM15.387 0.953582C11.5797 0.988784 7.94016 2.53692 5.26025 5.26119C2.58034 7.98547 1.07684 11.6655 1.07684 15.5006C1.07684 19.3358 2.58034 23.0158 5.26025 25.74C7.94016 28.4643 11.5797 30.0124 15.387 30.0476H103.608C105.516 30.0653 107.408 29.702 109.176 28.9789C110.943 28.2557 112.551 27.187 113.906 25.8345C115.261 24.4819 116.337 22.8723 117.071 21.0986C117.805 19.3249 118.183 17.4223 118.183 15.5006C118.183 13.579 117.805 11.6763 117.071 9.90264C116.337 8.12895 115.261 6.51934 113.906 5.16677C112.551 3.8142 110.943 2.74548 109.176 2.02234C107.408 1.29919 105.516 0.935944 103.608 0.953582H15.387Z"/><path fill="#670B78" d="M15.9814 7.42725C15.2102 7.42983 14.4714 7.73955 13.9261 8.28882C13.3808 8.83808 13.0733 9.58231 13.0707 10.3591V10.3922C11.1676 11.1362 9.77308 12.5984 9.3338 14.3033L9.27539 14.5289H10.3182L10.3584 14.4063C10.7478 13.1144 11.8028 12.0346 13.263 11.4132C13.4536 11.9114 13.7756 12.3477 14.1943 12.6751C14.6131 13.0025 15.1126 13.2085 15.639 13.2708C16.1655 13.3332 16.6988 13.2496 17.1816 13.029C17.6643 12.8084 18.078 12.4593 18.3782 12.0192C18.6783 11.5791 18.8535 11.0648 18.8847 10.5318C18.9159 9.99881 18.802 9.46734 18.5554 8.99475C18.3087 8.52216 17.9386 8.12639 17.485 7.85015C17.0314 7.57391 16.5115 7.42768 15.9814 7.42725ZM15.9814 12.2724C15.5307 12.2696 15.0955 12.1067 14.7524 11.8122C14.4093 11.5178 14.1805 11.1108 14.1063 10.6631C14.0918 10.5661 14.0844 10.4682 14.0844 10.3701C14.0846 9.992 14.1961 9.62244 14.4049 9.30816C14.6136 8.99388 14.9102 8.749 15.257 8.60447C15.6039 8.45994 15.9856 8.42225 16.3537 8.49616C16.7219 8.57008 17.06 8.75228 17.3253 9.01974C17.5907 9.28719 17.7714 9.62789 17.8445 9.99876C17.9177 10.3696 17.88 10.754 17.7363 11.1033C17.5926 11.4527 17.3493 11.7512 17.0371 11.9613C16.725 12.1713 16.358 12.2834 15.9826 12.2834L15.9814 12.2724Z"/><path fill="#670B78" d="M16.7257 10.3592C16.726 10.5077 16.6825 10.6528 16.6008 10.7763C16.5191 10.8998 16.4029 10.9962 16.2669 11.0531C16.1308 11.1101 15.981 11.1251 15.8365 11.0963C15.692 11.0675 15.5592 10.9962 15.4549 10.8913C15.3506 10.7865 15.2796 10.6528 15.2507 10.5073C15.2219 10.3617 15.2366 10.2108 15.2929 10.0737C15.3492 9.93656 15.4447 9.81933 15.5672 9.73685C15.6897 9.65438 15.8337 9.61035 15.981 9.61035C16.1782 9.61067 16.3673 9.68964 16.5068 9.82998C16.6464 9.97032 16.7251 10.1606 16.7257 10.3592Z"/><path fill="#670B78" d="M12.1529 15.5034C12.1523 15.6387 12.0986 15.7682 12.0035 15.8637C11.9085 15.9592 11.7798 16.013 11.6455 16.0133H7.78688C7.71839 16.0167 7.64994 16.006 7.58568 15.982C7.52141 15.9579 7.46266 15.9209 7.41301 15.8733C7.36335 15.8257 7.32382 15.7684 7.2968 15.7049C7.26979 15.6414 7.25586 15.5731 7.25586 15.504C7.25586 15.435 7.26979 15.3666 7.2968 15.3031C7.32382 15.2397 7.36335 15.1824 7.41301 15.1348C7.46266 15.0871 7.52141 15.0502 7.58568 15.0261C7.64994 15.002 7.71839 14.9914 7.78688 14.9948H11.6455C11.7796 14.9948 11.9083 15.0483 12.0034 15.1436C12.0985 15.2389 12.1523 15.3683 12.1529 15.5034Z"/><path fill="#670B78" d="M15.9814 17.7147C15.3927 17.7144 14.8177 17.894 14.3324 18.2297C13.847 18.5653 13.4742 19.0414 13.263 19.5949C11.8028 18.9747 10.749 17.8949 10.3584 16.6055L10.3182 16.4829H9.27539L9.3338 16.7097C9.77308 18.417 11.1676 19.8744 13.0707 20.6208V20.6527C13.071 21.2325 13.2419 21.7992 13.5619 22.2812C13.8818 22.7632 14.3365 23.1388 14.8684 23.3605C15.4003 23.5822 15.9855 23.6401 16.55 23.5268C17.1145 23.4136 17.6331 23.1342 18.04 22.7241C18.447 22.3141 18.7241 21.7917 18.8363 21.223C18.9485 20.6543 18.8908 20.0649 18.6704 19.5292C18.4501 18.9936 18.077 18.5357 17.5984 18.2136C17.1197 17.8915 16.557 17.7196 15.9814 17.7196V17.7147ZM15.9814 22.5586C15.4784 22.558 14.9961 22.3565 14.6403 21.9983C14.2844 21.6401 14.0841 21.1545 14.0831 20.6478C14.0831 20.5518 14.09 20.4559 14.1038 20.361V20.3377C14.1624 19.9775 14.322 19.6418 14.5639 19.3701C14.8057 19.0984 15.1198 18.902 15.4688 18.8043C15.8179 18.7066 16.1875 18.7115 16.5339 18.8186C16.8802 18.9256 17.189 19.1302 17.4236 19.4083C17.6583 19.6864 17.809 20.0263 17.858 20.3879C17.907 20.7495 17.8523 21.1176 17.7002 21.4489C17.5482 21.7802 17.3052 22.0607 17 22.2573C16.6948 22.454 16.3401 22.5585 15.9778 22.5586H15.9814Z"/><path fill="#670B78" d="M16.7257 20.6478C16.7255 20.7961 16.6816 20.941 16.5996 21.0642C16.5177 21.1874 16.4013 21.2834 16.2652 21.34C16.1291 21.3966 15.9794 21.4112 15.835 21.3822C15.6906 21.3531 15.558 21.2815 15.454 21.1766C15.35 21.0716 15.2792 20.938 15.2505 20.7925C15.2219 20.647 15.2367 20.4963 15.2931 20.3593C15.3495 20.2223 15.445 20.1052 15.5674 20.0228C15.6899 19.9404 15.8338 19.8965 15.981 19.8965C16.1787 19.8968 16.3681 19.9761 16.5077 20.117C16.6473 20.2579 16.7257 20.4488 16.7257 20.6478Z"/><path fill="#670B78" d="M31.3233 13.6773C31.2654 13.7679 31.1858 13.8425 31.0918 13.8941C30.9978 13.9457 30.8925 13.9727 30.7854 13.9727H30.7574C30.6374 13.9726 30.5199 13.9379 30.4188 13.8728C30.3176 13.8076 30.2371 13.7147 30.1867 13.605C30.1004 13.4197 29.9935 13.2449 29.8679 13.084C29.6828 12.8448 29.46 12.6378 29.2084 12.4712C28.9456 12.2993 28.6584 12.1687 28.3566 12.0839C27.6648 11.8994 26.9372 11.8994 26.2454 12.0839C25.508 12.2757 24.8267 12.6421 24.2583 13.1527C23.9719 13.41 23.7199 13.7038 23.5087 14.0266C23.2956 14.3579 23.1278 14.7165 23.0098 15.0929C22.8875 15.4898 22.826 15.9031 22.8273 16.3186C22.8204 16.7694 22.9031 17.217 23.0706 17.635C23.2241 18.0108 23.4532 18.3505 23.7435 18.6327C24.0337 18.9085 24.3753 19.1235 24.7487 19.2652C25.1414 19.4145 25.5579 19.4901 25.9777 19.4882C26.3361 19.4884 26.6932 19.4423 27.04 19.351C27.3874 19.2599 27.7231 19.1283 28.0402 18.9587C28.3595 18.7866 28.6583 18.5786 28.931 18.3385C29.1568 18.141 29.3627 17.9213 29.5455 17.6828C29.5992 17.6151 29.6673 17.5605 29.7448 17.5229C29.8223 17.4853 29.9072 17.4659 29.9933 17.4659C30.1003 17.4653 30.2053 17.4955 30.296 17.5527C30.3867 17.61 30.4594 17.6921 30.5055 17.7894C30.5525 17.8877 30.5711 17.9972 30.5592 18.1055C30.5474 18.2139 30.5056 18.3167 30.4386 18.4023C30.3109 18.5641 30.1734 18.7222 30.0285 18.8729C29.316 19.6187 28.4213 20.1627 27.4342 20.4504C26.929 20.5988 26.4053 20.6735 25.8791 20.6722C25.2801 20.6782 24.6856 20.5679 24.1281 20.3474C23.6162 20.143 23.1493 19.839 22.7543 19.4527C22.3696 19.067 22.0641 18.6089 21.855 18.1044C21.6386 17.5713 21.5306 16.9999 21.5374 16.424C21.5366 15.9168 21.6112 15.4124 21.7589 14.9275C21.9012 14.4528 22.1059 13.9994 22.3673 13.5792C22.6298 13.1596 22.9442 12.7753 23.303 12.4356C23.6671 12.0908 24.0712 11.7916 24.5065 11.5446C24.9459 11.2936 25.4148 11.0993 25.9022 10.9661C26.4007 10.8292 26.9151 10.7604 27.4318 10.7614C27.9393 10.7576 28.4443 10.8316 28.9297 10.9808C29.3768 11.1175 29.7983 11.3279 30.177 11.6034C30.5389 11.8681 30.8498 12.197 31.0945 12.5742C31.1989 12.7362 31.2912 12.9058 31.3707 13.0816C31.4128 13.177 31.4305 13.2815 31.4222 13.3855C31.414 13.4896 31.3799 13.5899 31.3233 13.6773Z"/><path fill="#670B78" d="M42.7946 15.2668L41.9805 19.9097C41.9552 20.057 41.8791 20.1905 41.7655 20.2867C41.652 20.3829 41.5083 20.4356 41.3599 20.4355H41.3429C41.2507 20.4355 41.1596 20.4151 41.0761 20.3758C40.9925 20.3366 40.9185 20.2794 40.8592 20.2082C40.8 20.1371 40.7569 20.0538 40.733 19.9641C40.7092 19.8744 40.7051 19.7805 40.7211 19.689L41.5047 15.2423C41.6071 14.7367 41.6301 14.218 41.5729 13.7052C41.5317 13.3383 41.3897 12.9902 41.1628 12.7002C40.9323 12.4341 40.6327 12.2379 40.2976 12.1339C39.8671 12 39.4181 11.9362 38.9676 11.9452C38.5321 11.9457 38.0999 12.0215 37.6899 12.1695C37.2761 12.3186 36.8896 12.5356 36.5461 12.8117C36.1952 13.0964 35.8956 13.4396 35.6602 13.8266C35.4114 14.2403 35.243 14.6978 35.1637 15.1748L34.329 19.9268C34.2967 20.0898 34.2023 20.2336 34.0661 20.3274C33.9299 20.4212 33.7626 20.4575 33.6001 20.4287C33.4376 20.3999 33.2928 20.3081 33.1966 20.1731C33.1004 20.0381 33.0605 19.8705 33.0854 19.7062L35.1394 7.95189C35.1539 7.86964 35.1844 7.79108 35.2291 7.72069C35.2738 7.65031 35.3318 7.58948 35.3998 7.54168C35.4678 7.49388 35.5445 7.46004 35.6256 7.44209C35.7066 7.42415 35.7903 7.42245 35.8719 7.4371C35.9536 7.45175 36.0316 7.48245 36.1015 7.52746C36.1713 7.57247 36.2317 7.6309 36.2792 7.69941C36.3267 7.76793 36.3602 7.84519 36.3781 7.92679C36.3959 8.00838 36.3976 8.09271 36.383 8.17496L35.659 12.2565C35.8029 12.1117 35.9557 11.9762 36.1165 11.8508C36.4009 11.6265 36.7085 11.4337 37.034 11.2759C37.3709 11.1135 37.7236 10.9869 38.0866 10.8984C38.4617 10.8082 38.846 10.7629 39.2317 10.7636C40.6359 10.7636 41.6593 11.1313 42.2738 11.8667C42.8883 12.6021 43.0586 13.7445 42.7946 15.2668Z"/><path fill="#670B78" d="M48.5287 8.22046C48.5229 8.34895 48.4888 8.47453 48.4289 8.58817C48.3735 8.69506 48.2993 8.79098 48.2099 8.8713C48.0037 9.05343 47.7382 9.15289 47.464 9.15076C47.3571 9.15631 47.2502 9.13946 47.1501 9.10128C47.05 9.06309 46.9588 9.0044 46.8823 8.92891C46.8122 8.85756 46.7571 8.7727 46.7203 8.6794C46.6835 8.58611 46.6658 8.48629 46.6682 8.38593C46.6681 8.25867 46.6964 8.13301 46.7509 8.01822C46.8064 7.90049 46.8846 7.79507 46.9809 7.70813C47.081 7.61962 47.1954 7.54914 47.3192 7.49976C47.4483 7.44882 47.5858 7.42304 47.7244 7.42377C47.8317 7.41855 47.939 7.43567 48.0395 7.47405C48.14 7.51243 48.2316 7.57125 48.3085 7.64684C48.3834 7.7213 48.4418 7.81094 48.4798 7.90983C48.5177 8.00871 48.5344 8.11459 48.5287 8.22046Z"/><path fill="#670B78" d="M47.6224 11.754L46.1987 19.9085C46.1843 19.9911 46.1539 20.0701 46.1092 20.1409C46.0645 20.2118 46.0064 20.273 45.9382 20.3212C45.87 20.3694 45.7931 20.4036 45.7118 20.4219C45.6305 20.4401 45.5464 20.4421 45.4643 20.4276C45.3823 20.4131 45.3038 20.3825 45.2335 20.3374C45.1632 20.2924 45.1024 20.2339 45.0545 20.1652C45.0067 20.0965 44.9727 20.019 44.9546 19.9371C44.9365 19.8552 44.9346 19.7705 44.949 19.6879L46.38 11.5346C46.4045 11.3872 46.4803 11.2534 46.5937 11.1571C46.7072 11.0607 46.851 11.0082 46.9994 11.0088C47.0915 11.0087 47.1826 11.0289 47.2662 11.068C47.3498 11.1071 47.4239 11.1642 47.4833 11.2352C47.5426 11.3062 47.5859 11.3894 47.6099 11.4791C47.6339 11.5687 47.6382 11.6625 47.6224 11.754Z"/><path fill="#670B78" d="M65.3437 15.2312L64.526 19.9097C64.5137 19.9937 64.4849 20.0743 64.4412 20.1469C64.3975 20.2195 64.3398 20.2825 64.2715 20.3322C64.2032 20.3819 64.1257 20.4173 64.0436 20.4364C63.9614 20.4554 63.8764 20.4576 63.7933 20.443C63.7103 20.4283 63.6311 20.397 63.5603 20.351C63.4895 20.3049 63.4286 20.245 63.3812 20.1748C63.3338 20.1047 63.3008 20.0256 63.2843 19.9424C63.2677 19.8592 63.2679 19.7734 63.2848 19.6903L64.0611 15.2435C64.161 14.7468 64.1897 14.2383 64.1463 13.7334C64.1141 13.3734 64.0019 13.0252 63.8178 12.7149C63.6568 12.4605 63.426 12.2587 63.1534 12.1339C62.8409 11.9999 62.5036 11.9343 62.1641 11.9415C61.7396 11.9404 61.3182 12.0147 60.9192 12.1609C60.5278 12.3062 60.1655 12.5213 59.8496 12.7958C59.522 13.0844 59.2462 13.4277 59.0343 13.8107C58.802 14.2355 58.644 14.6973 58.5671 15.1761L58.55 15.2778H58.5294L57.7214 19.906C57.7069 19.9886 57.6764 20.0676 57.6317 20.1384C57.5869 20.2092 57.5287 20.2704 57.4605 20.3185C57.3922 20.3667 57.3152 20.4008 57.2339 20.419C57.1526 20.4372 57.0685 20.439 56.9864 20.4245C56.9043 20.4099 56.8259 20.3792 56.7557 20.3341C56.6854 20.289 56.6246 20.2304 56.5768 20.1617C56.529 20.0929 56.4951 20.0154 56.4771 19.9334C56.4591 19.8515 56.4572 19.7668 56.4717 19.6841L57.2468 15.2435C57.347 14.7469 57.3753 14.2382 57.3308 13.7334C57.3001 13.3732 57.1881 13.0249 57.0034 12.7149C56.8425 12.4605 56.6117 12.2587 56.339 12.1339C56.027 11.9999 55.6901 11.9343 55.351 11.9415C54.926 11.9403 54.5042 12.0146 54.1049 12.1609C53.7141 12.3059 53.3519 12.5196 53.0353 12.7921C52.7057 13.0797 52.4296 13.4242 52.22 13.8094C51.9882 14.2393 51.8271 14.7041 51.743 15.1859L50.918 19.9097C50.889 20.0756 50.7956 20.2231 50.6586 20.3198C50.5216 20.4165 50.352 20.4543 50.1873 20.4251C50.0225 20.3958 49.8761 20.3018 49.7801 20.1638C49.6841 20.0258 49.6466 19.855 49.6756 19.689L51.1066 11.5333C51.1322 11.3864 51.2084 11.2533 51.322 11.1575C51.4356 11.0617 51.5791 11.0095 51.7272 11.01H51.7491C51.8417 11.0096 51.9332 11.0299 52.0171 11.0693C52.1011 11.1087 52.1753 11.1663 52.2346 11.238C52.2939 11.3096 52.3367 11.3936 52.3601 11.4838C52.3834 11.5741 52.3867 11.6684 52.3697 11.7601L52.3113 12.0726C52.6788 11.727 53.095 11.4379 53.5464 11.2147C54.1792 10.9098 54.8734 10.7563 55.5749 10.7661C56.322 10.7661 56.9608 10.9438 57.4743 11.2919C57.9426 11.6134 58.2921 12.0818 58.4685 12.6242C58.643 12.4037 58.836 12.1987 59.0453 12.0114C59.3279 11.759 59.6396 11.5417 59.9737 11.3642C60.3261 11.177 60.699 11.0318 61.0847 10.9315C61.5016 10.8232 61.9307 10.7696 62.3612 10.7722C62.8664 10.7633 63.3682 10.858 63.836 11.0504C64.2564 11.2301 64.6193 11.5232 64.8849 11.8974C65.1673 12.3175 65.3474 12.7987 65.4106 13.302C65.4909 13.9445 65.4684 14.5959 65.3437 15.2312Z"/><path fill="#670B78" d="M77.2269 13.3452C77.0181 12.8332 76.7081 12.3693 76.3159 11.9816C75.9237 11.594 75.4574 11.2906 74.9453 11.0899C74.3865 10.8691 73.7909 10.7584 73.1906 10.7639C72.674 10.7627 72.1595 10.8315 71.6611 10.9686C71.1746 11.1014 70.7069 11.2957 70.269 11.5471C69.8362 11.7957 69.4339 12.0948 69.0704 12.4381C68.7118 12.7788 68.3959 13.1625 68.1298 13.5805C67.867 13.9999 67.6623 14.4535 67.5214 14.9287C67.3772 15.4139 67.3042 15.9177 67.3048 16.4241C67.3012 16.9975 67.41 17.5661 67.6248 18.0971C67.8308 18.6054 68.1367 19.0665 68.5241 19.4527C68.92 19.8401 69.387 20.1461 69.8991 20.3536C70.4553 20.5744 71.0487 20.6847 71.6465 20.6784C72.1647 20.6797 72.6807 20.6112 73.1809 20.475C74.1546 20.2109 75.0486 19.7091 75.7837 19.0139C76.1444 18.673 76.4608 18.2875 76.7256 17.8667C76.9871 17.4466 77.1918 16.9932 77.334 16.5184C77.4782 16.0333 77.5512 15.5295 77.5506 15.0231C77.5545 14.4477 77.4445 13.8772 77.2269 13.3452ZM73.1103 11.9417C73.5473 11.9375 73.9808 12.0209 74.3856 12.1869C74.7586 12.3415 75.0971 12.5699 75.381 12.8586C75.6611 13.1493 75.8815 13.493 76.0295 13.8697C76.1882 14.2739 76.268 14.705 76.2644 15.1396C76.2682 15.729 76.1401 16.3118 75.8896 16.8445C75.6436 17.3658 75.3027 17.8361 74.8845 18.2307C74.4642 18.6272 73.975 18.9421 73.4413 19.1598C72.905 19.3814 72.3308 19.4955 71.7511 19.4956C71.315 19.4984 70.8826 19.4151 70.4783 19.2505C70.1064 19.0997 69.7691 18.8738 69.4872 18.5867C69.2053 18.2996 68.9847 17.9574 68.8392 17.5811C68.6807 17.1736 68.6014 16.7392 68.6056 16.3015C68.6044 15.907 68.6618 15.5145 68.7759 15.1371C68.8878 14.7687 69.0482 14.417 69.2529 14.0916C69.4589 13.7683 69.7042 13.4723 69.983 13.2103C70.2622 12.9467 70.5719 12.7179 70.9054 12.5288C71.2399 12.3399 71.5963 12.1933 71.9665 12.0925C72.3394 11.9911 72.7241 11.9404 73.1103 11.9417Z"/><path fill="#670B78" d="M88.9498 15.3306L88.1515 19.9024C88.137 19.9857 88.1063 20.0653 88.0612 20.1366C88.0161 20.208 87.9576 20.2697 87.8888 20.3182C87.82 20.3668 87.7425 20.4012 87.6605 20.4195C87.5785 20.4379 87.4938 20.4398 87.4111 20.4251C87.3284 20.4105 87.2494 20.3796 87.1785 20.3342C87.1077 20.2888 87.0464 20.2297 86.9983 20.1605C86.9501 20.0912 86.9159 20.0131 86.8977 19.9305C86.8795 19.848 86.8776 19.7626 86.8921 19.6793L87.6575 15.3073C87.7599 14.8025 87.7825 14.2846 87.7244 13.7727C87.6831 13.3984 87.5446 13.0416 87.3229 12.7383C87.1021 12.4647 86.8101 12.2584 86.4796 12.1426C86.0604 12.0003 85.6199 11.9323 85.1776 11.9416C84.7312 11.9424 84.2887 12.0255 83.8719 12.1867C83.4487 12.3511 83.0562 12.5865 82.711 12.8829C82.3529 13.1917 82.0482 13.5583 81.8094 13.9676C81.5558 14.3985 81.3841 14.8732 81.3031 15.3673L80.5049 19.911C80.4789 20.058 80.4023 20.1912 80.2887 20.2871C80.175 20.383 80.0314 20.4356 79.8831 20.4356C79.791 20.4353 79.7 20.4148 79.6166 20.3755C79.5331 20.3362 79.4592 20.279 79.4 20.2079C79.3408 20.1368 79.2977 20.0535 79.2737 19.9639C79.2498 19.8743 79.2455 19.7805 79.2613 19.6891L80.6923 11.5383C80.7054 11.454 80.7351 11.3733 80.7797 11.3007C80.8242 11.2282 80.8827 11.1654 80.9518 11.116C81.0208 11.0665 81.0989 11.0315 81.1815 11.0129C81.2642 10.9944 81.3497 10.9926 81.433 11.0078C81.5163 11.023 81.5958 11.0549 81.6667 11.1014C81.7377 11.148 81.7987 11.2084 81.8461 11.2791C81.8935 11.3498 81.9264 11.4293 81.9429 11.5129C81.9594 11.5966 81.959 11.6827 81.942 11.7663L81.8568 12.2566C82.007 12.1101 82.1659 11.973 82.3326 11.846C82.6171 11.6263 82.9224 11.4354 83.244 11.276C83.5734 11.1133 83.9194 10.9871 84.2759 10.8997C84.6418 10.8086 85.0173 10.763 85.3942 10.7637C86.7996 10.7637 87.8206 11.1473 88.4363 11.9011C89.052 12.6549 89.2138 13.8083 88.9498 15.3306Z"/><path fill="#670B78" d="M100.99 13.7812C100.838 13.1987 100.557 12.6584 100.168 12.2013C99.7696 11.7453 99.2749 11.3848 98.7202 11.146C98.1119 10.8852 97.4562 10.755 96.7952 10.7636C96.0963 10.7637 95.4037 10.8959 94.7533 11.1534C94.1167 11.4031 93.5258 11.7576 93.0047 12.2025C92.486 12.65 92.043 13.1795 91.6929 13.7702C91.3373 14.3634 91.0954 15.0187 90.9799 15.7019C90.8563 16.3455 90.8771 17.0088 91.0407 17.6433C91.1929 18.2306 91.4754 18.7754 91.8669 19.2367C92.2643 19.696 92.7587 20.06 93.3138 20.3019C93.9247 20.5656 94.5839 20.6972 95.2486 20.6879C95.7698 20.6888 96.2885 20.615 96.7891 20.4686C97.2735 20.3233 97.7379 20.1174 98.1714 19.8557C98.5971 19.6009 98.9906 19.2951 99.3432 18.945C99.4649 18.8225 99.5793 18.6999 99.6876 18.5712C99.7595 18.4885 99.8059 18.3865 99.8213 18.2777C99.8366 18.1689 99.8202 18.0579 99.774 17.9583C99.7279 17.8556 99.6533 17.7686 99.5591 17.7077C99.465 17.6468 99.3553 17.6146 99.2435 17.6152C99.1576 17.6145 99.0727 17.6335 98.9951 17.6706C98.9175 17.7078 98.8493 17.7621 98.7957 17.8297C98.6205 18.0478 98.4262 18.2496 98.2152 18.4327C97.9507 18.661 97.6622 18.8595 97.3549 19.0247C97.0467 19.1898 96.7198 19.317 96.3814 19.4034C96.04 19.4923 95.6888 19.5372 95.3362 19.537C94.8898 19.5401 94.447 19.4569 94.0317 19.2919C93.6399 19.1369 93.2847 18.901 92.9889 18.5994C92.6919 18.2899 92.4663 17.9183 92.3281 17.511C92.1856 17.0841 92.1326 16.6321 92.1724 16.1836H100.51C100.64 16.1825 100.766 16.1365 100.866 16.0532C100.966 15.97 101.035 15.8546 101.06 15.7264C101.173 15.0803 101.149 14.4173 100.99 13.7812ZM96.7234 11.8961C97.1819 11.8899 97.637 11.9761 98.0619 12.1498C98.4439 12.3072 98.7876 12.546 99.0694 12.8497C99.347 13.1563 99.5572 13.5184 99.6864 13.9124C99.8061 14.2729 99.8645 14.6513 99.8592 15.0314C99.8592 15.0582 99.8487 15.0839 99.83 15.1029C99.8113 15.122 99.786 15.1328 99.7594 15.1331H92.5107C92.4944 15.1334 92.4784 15.1296 92.4639 15.1222C92.4495 15.1147 92.4371 15.1037 92.4279 15.0902C92.419 15.0773 92.4134 15.0625 92.4115 15.0469C92.4096 15.0313 92.4114 15.0155 92.417 15.0008C92.5525 14.6259 92.7358 14.2704 92.9621 13.943C93.2442 13.5334 93.5863 13.1693 93.9769 12.8632C94.3675 12.5597 94.8027 12.3195 95.2668 12.1511C95.734 11.9819 96.2269 11.8957 96.7234 11.8961Z"/><path fill="#670B78" d="M111.632 11.9418L104.669 23.2953C104.628 23.3626 104.574 23.421 104.51 23.4672C104.446 23.5133 104.374 23.5464 104.297 23.5644C104.221 23.5825 104.141 23.5851 104.064 23.5723C103.986 23.5595 103.912 23.5313 103.845 23.4896C103.778 23.4478 103.72 23.3932 103.674 23.3289C103.629 23.2645 103.596 23.1917 103.578 23.1146C103.56 23.0375 103.557 22.9576 103.57 22.8795C103.583 22.8013 103.611 22.7265 103.652 22.6592L105.178 20.1845L102.988 11.8499C102.965 11.7647 102.959 11.6758 102.971 11.5883C102.982 11.5009 103.01 11.4165 103.054 11.3402C103.098 11.2638 103.157 11.197 103.226 11.1435C103.296 11.09 103.375 11.0509 103.46 11.0284C103.545 11.0059 103.633 11.0006 103.72 11.0126C103.807 11.0246 103.89 11.0538 103.966 11.0985C104.041 11.1432 104.107 11.2025 104.16 11.2729C104.213 11.3434 104.251 11.4237 104.273 11.5091L106.122 18.6365L110.598 11.3008C110.652 11.2122 110.728 11.139 110.819 11.0882C110.909 11.0373 111.01 11.0105 111.114 11.0103C111.222 11.0105 111.328 11.0396 111.421 11.0947C111.514 11.1497 111.591 11.2287 111.643 11.3235C111.696 11.4183 111.723 11.5255 111.721 11.6341C111.719 11.7428 111.688 11.849 111.632 11.9418Z"/></g><defs><clipPath id="clip0_232_460"><rect width="119" height="31" fill="#670B78"/></clipPath></defs></svg>