<svg width="36" height="36" viewBox="0 0 36 36" fill="none" xmlns="http://www.w3.org/2000/svg">
<path d="M28.9211 27.3291C29.0256 27.4336 29.1085 27.5577 29.1651 27.6943C29.2216 27.8308 29.2508 27.9772 29.2508 28.125C29.2508 28.2728 29.2216 28.4192 29.1651 28.5558C29.1085 28.6923 29.0256 28.8164 28.9211 28.921C28.8166 29.0255 28.6925 29.1084 28.5559 29.165C28.4193 29.2215 28.273 29.2506 28.1251 29.2506C27.9773 29.2506 27.8309 29.2215 27.6944 29.165C27.5578 29.1084 27.4337 29.0255 27.3292 28.921L18.0001 19.5905L8.67107 28.921C8.45998 29.132 8.17367 29.2506 7.87514 29.2506C7.5766 29.2506 7.2903 29.132 7.0792 28.921C6.8681 28.7099 6.74951 28.4236 6.74951 28.125C6.74951 27.8265 6.8681 27.5402 7.0792 27.3291L16.4097 18L7.0792 8.67095C6.8681 8.45986 6.74951 8.17355 6.74951 7.87502C6.74951 7.57648 6.8681 7.29017 7.0792 7.07908C7.2903 6.86798 7.5766 6.74939 7.87514 6.74939C8.17367 6.74939 8.45998 6.86798 8.67107 7.07908L18.0001 16.4095L27.3292 7.07908C27.5403 6.86798 27.8266 6.74939 28.1251 6.74939C28.4237 6.74939 28.71 6.86798 28.9211 7.07908C29.1322 7.29017 29.2508 7.57648 29.2508 7.87502C29.2508 8.17355 29.1322 8.45986 28.9211 8.67095L19.5906 18L28.9211 27.3291Z" fill="#670B78"/>
</svg>
