<svg xmlns="http://www.w3.org/2000/svg" width="31" height="32" fill="none" viewBox="0 0 31 32"><g clip-path="url(#clip0_232_478)"><mask id="mask0_232_478" style="mask-type:luminance" width="31" height="32" x="0" y="0" maskUnits="userSpaceOnUse"><path fill="#fff" d="M31 0H0V32H31V0Z"/></mask><g mask="url(#mask0_232_478)"><path fill="#670B78" d="M21.7925 11.0849C21.658 10.7253 21.452 10.3987 21.1878 10.1263C20.9236 9.85386 20.6071 9.64157 20.2586 9.50314C19.7787 9.31974 19.272 9.22273 18.7603 9.21652C17.9094 9.17647 17.6543 9.1665 15.4988 9.1665C13.3433 9.1665 13.0882 9.17647 12.2373 9.21652C11.7251 9.22255 11.2178 9.31946 10.7374 9.50314C10.3891 9.64202 10.0727 9.8546 9.80886 10.1273C9.54491 10.4001 9.3393 10.7267 9.20518 11.0865C9.02745 11.5818 8.93352 12.105 8.92747 12.6331C8.88872 13.5115 8.87903 13.7748 8.87903 15.9998C8.87903 18.2248 8.88872 18.4882 8.92747 19.3665C8.93333 19.8952 9.02727 20.419 9.20518 20.9148C9.33967 21.2744 9.54564 21.6009 9.80987 21.8733C10.074 22.1458 10.3906 22.358 10.739 22.4965C11.2189 22.6799 11.7257 22.7769 12.2373 22.7831C13.0882 22.8232 13.3433 22.8332 15.4988 22.8332C17.6543 22.8332 17.9094 22.8232 18.7603 22.7831C19.2725 22.7771 19.7798 22.6801 20.2602 22.4965C20.6085 22.3576 20.9249 22.1451 21.1888 21.8723C21.4527 21.5996 21.6583 21.2728 21.7925 20.9132C21.9702 20.4178 22.0642 19.8946 22.0702 19.3665C22.1089 18.4882 22.1186 18.2248 22.1186 15.9998C22.1186 13.7748 22.1089 13.5115 22.0702 12.6331C22.0643 12.1044 21.9703 11.5807 21.7925 11.0849ZM15.4988 20.2798C14.6788 20.2798 13.8772 20.0288 13.1952 19.5585C12.5134 19.0882 11.982 18.4198 11.6682 17.6377C11.3544 16.8556 11.2722 15.995 11.4323 15.1649C11.5922 14.3346 11.9872 13.572 12.567 12.9734C13.1468 12.3748 13.8856 11.9672 14.6899 11.802C15.4943 11.6369 16.3279 11.7217 17.0856 12.0456C17.8432 12.3695 18.4907 12.9181 18.9463 13.622C19.4019 14.3258 19.6451 15.1533 19.6451 15.9998C19.6451 17.135 19.2082 18.2236 18.4307 19.0263C17.653 19.8289 16.5985 20.2798 15.4988 20.2798ZM19.8082 12.5515C19.6165 12.5515 19.4293 12.4929 19.27 12.383C19.1106 12.2731 18.9864 12.1169 18.9131 11.9341C18.8398 11.7515 18.8207 11.5504 18.858 11.3564C18.8954 11.1624 18.9877 10.9842 19.1232 10.8444C19.2586 10.7045 19.4313 10.6092 19.6192 10.5707C19.8071 10.5321 20.0018 10.5519 20.1789 10.6276C20.3559 10.7033 20.5071 10.8315 20.6136 10.9959C20.72 11.1604 20.7769 11.3537 20.7769 11.5515C20.7769 11.8167 20.6748 12.0711 20.4932 12.2586C20.3115 12.4461 20.065 12.5515 19.8082 12.5515Z"/><path fill="#670B78" d="M15.499 18.7786C16.9855 18.7786 18.1905 17.5347 18.1905 16.0003C18.1905 14.4658 16.9855 13.2219 15.499 13.2219C14.0125 13.2219 12.8075 14.4658 12.8075 16.0003C12.8075 17.5347 14.0125 18.7786 15.499 18.7786Z"/><path fill="#670B78" d="M15.5 0C12.4344 0 9.43758 0.938386 6.88866 2.69648C4.33971 4.45459 2.35304 6.95344 1.17988 9.87703C0.00671579 12.8006 -0.300236 16.0177 0.297835 19.1215C0.895906 22.2251 2.37214 25.0761 4.53985 27.3137C6.70756 29.5514 9.46941 31.0752 12.4761 31.6925C15.4828 32.3099 18.5994 31.9931 21.4316 30.7821C24.2639 29.5711 26.6846 27.5203 28.3878 24.8891C30.091 22.2579 31 19.1645 31 16C31 13.8989 30.5991 11.8182 29.8202 9.87703C29.0412 7.93585 27.8995 6.17203 26.4601 4.68629C25.0208 3.20056 23.3122 2.02201 21.4316 1.21793C19.5511 0.413852 17.5355 0 15.5 0ZM23.5244 19.4367C23.5107 20.1276 23.3834 20.8112 23.1482 21.4584C22.9409 22.0118 22.6239 22.5145 22.2173 22.934C21.8109 23.3537 21.3239 23.681 20.7878 23.895C20.1608 24.1377 19.4986 24.2691 18.8293 24.2833C17.9671 24.3233 17.6926 24.3333 15.5 24.3333C13.3074 24.3333 13.0329 24.3233 12.1707 24.2833C11.5014 24.2691 10.8391 24.1377 10.2122 23.895C9.6761 23.681 9.18913 23.3537 8.78266 22.934C8.37616 22.5145 8.05908 22.0118 7.85173 21.4584C7.61658 20.8112 7.48938 20.1276 7.47553 19.4367C7.43678 18.5467 7.42709 18.2633 7.42709 16C7.42709 13.7367 7.43678 13.4533 7.47553 12.5633C7.48938 11.8724 7.61658 11.1888 7.85173 10.5416C8.05908 9.9882 8.37616 9.48553 8.78266 9.06596C9.18913 8.64635 9.6761 8.31904 10.2122 8.105C10.8391 7.86227 11.5014 7.73096 12.1707 7.71666C13.0329 7.67666 13.3074 7.66667 15.5 7.66667C17.6926 7.66667 17.9671 7.67666 18.8293 7.71666C19.4986 7.73096 20.1608 7.86227 20.7878 8.105C21.3239 8.31904 21.8109 8.64635 22.2173 9.06596C22.6239 9.48553 22.9409 9.9882 23.1482 10.5416C23.3834 11.1888 23.5107 11.8724 23.5244 12.5633C23.5632 13.4533 23.5729 13.7367 23.5729 16C23.5729 18.2633 23.5632 18.5467 23.5244 19.4367Z"/></g></g><defs><clipPath id="clip0_232_478"><rect width="31" height="32" fill="#fff"/></clipPath></defs></svg>