<svg width="554" height="396" viewBox="0 0 554 396" fill="none" xmlns="http://www.w3.org/2000/svg">
<g clip-path="url(#clip0_232_183)">
<path d="M404.932 60.5098H40.6406V164.26H404.932V60.5098Z" fill="#E9E9EB"/>
<path d="M415.319 172.542H30.7077C29.6143 172.542 28.7031 171.632 28.7031 170.54V166.353C28.7031 165.261 29.6143 164.351 30.7077 164.351H415.319C416.412 164.351 417.323 165.261 417.323 166.353V170.54C417.232 171.723 416.412 172.542 415.319 172.542Z" fill="#D8D8FF"/>
<path d="M462.789 32.3882H388.801V37.3937H462.789V32.3882Z" fill="#BB76CC"/>
<path d="M400.555 0.0800781H393.812V32.3882H400.555V0.0800781Z" fill="#D8D8FF"/>
<path d="M408.848 0.0800781H402.105V32.3882H408.848V0.0800781Z" fill="#D8D8FF"/>
<path d="M415.339 0.0107269L409.109 2.5874L421.485 32.4369L427.715 29.8602L415.339 0.0107269Z" fill="#D8D8FF"/>
<path d="M552.179 173.816H476.915C476.277 173.816 475.73 173.27 475.73 172.633V108.835C475.73 108.198 476.277 107.652 476.915 107.652H552.179C552.817 107.652 553.363 108.198 553.363 108.835V172.633C553.272 173.27 552.817 173.816 552.179 173.816Z" fill="#D8D8FF"/>
<g opacity="0.63">
<path d="M527.393 165.534C517.188 165.534 506.983 165.534 496.778 165.534C482.563 150.517 478.645 130.769 485.114 115.661C495.138 115.661 505.069 115.661 515.092 115.661C508.896 130.678 512.997 150.517 527.393 165.534Z" fill="#FDFDFF"/>
</g>
<g opacity="0.63">
<path d="M554.002 136.229C543.888 136.229 533.683 136.229 523.569 136.229C517.919 129.95 516.553 121.668 519.377 115.388C528.945 115.479 538.421 115.57 547.989 115.661C545.893 121.941 547.897 130.041 554.002 136.229Z" fill="#FDFDFF"/>
</g>
<g opacity="0.63">
<path d="M552.27 159.254C544.161 159.254 535.96 159.254 527.85 159.254C523.294 154.158 522.201 147.514 524.479 142.509C532.133 142.6 539.787 142.691 547.441 142.782C545.801 147.787 547.35 154.34 552.27 159.254Z" fill="#FDFDFF"/>
</g>
<path d="M503.887 204.759C503.887 204.759 510.265 196.659 516.279 203.758C516.279 203.849 510.538 211.311 503.887 204.759Z" fill="#670B78"/>
<path d="M519.1 193.019C519.1 193.019 518.736 185.465 526.572 187.285C526.572 187.194 526.481 196.932 519.1 193.019Z" fill="#670B78"/>
<path d="M517.828 196.932C517.828 196.932 523.386 193.656 525.391 199.389C525.391 199.389 518.466 204.395 517.828 196.932Z" fill="#670B78"/>
<path d="M517.643 196.022C517.643 196.022 510.445 194.566 509.625 198.57C509.625 198.479 513.27 202.119 517.643 196.022Z" fill="#670B78"/>
<path d="M517.917 210.674C517.735 210.674 517.553 210.492 517.462 210.31C517.37 210.037 515.366 202.756 518.919 191.926C519.011 191.653 519.284 191.562 519.557 191.653C519.831 191.744 519.922 192.017 519.831 192.29C516.368 202.847 518.373 210.037 518.373 210.128C518.464 210.401 518.282 210.674 518.008 210.765C518.008 210.674 518.008 210.674 517.917 210.674Z" fill="#51515E"/>
<path d="M524.662 217.136V209.036H510.083V217.045C508.625 218.41 507.531 220.412 507.531 223.234C507.531 229.331 512.543 231.151 518.01 231.151C523.477 231.151 527.213 229.331 527.213 223.234C527.122 220.412 526.211 218.501 524.662 217.136Z" fill="#BB76CC"/>
<path d="M517.371 203.576C517.371 203.576 525.754 200.845 527.121 209.309C527.121 209.309 518.465 211.038 517.371 203.576Z" fill="#670B78"/>
<path d="M526.574 208.854C525.389 208.308 517.462 203.849 517.189 203.667C517.098 203.667 517.098 203.576 517.098 203.485C517.098 203.394 517.189 203.394 517.28 203.394C517.371 203.485 525.572 208.035 526.665 208.49C526.756 208.49 526.756 208.581 526.756 208.672C526.756 208.854 526.665 208.854 526.574 208.854Z" fill="#FDFDFF"/>
<path d="M525.39 199.571L517.736 197.114C517.645 197.114 517.645 197.023 517.645 196.932C517.645 196.841 517.736 196.841 517.827 196.841L525.39 199.298C525.481 199.298 525.481 199.389 525.481 199.48C525.481 199.48 525.481 199.571 525.39 199.571Z" fill="#FDFDFF"/>
<path d="M519.1 193.11C519.1 193.11 519.009 193.11 519.009 193.019C518.918 192.928 519.009 192.836 519.009 192.836L526.481 187.103C526.572 187.012 526.663 187.103 526.663 187.103C526.754 187.194 526.663 187.285 526.663 187.285L519.1 193.11Z" fill="#FDFDFF"/>
<path d="M510.083 198.297C509.992 198.297 509.992 198.297 509.992 198.206C509.992 198.115 509.992 198.024 510.083 198.024L517.646 195.84C517.737 195.84 517.828 195.84 517.828 195.931C517.828 196.022 517.828 196.113 517.737 196.113L510.083 198.297Z" fill="#FDFDFF"/>
<path d="M503.885 204.941C503.794 204.941 503.794 204.85 503.703 204.85C503.703 204.759 503.794 204.668 503.794 204.668L516.186 203.667C516.277 203.667 516.369 203.758 516.369 203.758C516.369 203.849 516.277 203.94 516.277 203.94L503.885 204.941Z" fill="#FDFDFF"/>
<path d="M44.282 342L38.0859 367.118H45.831L61.0478 338.997L44.282 342Z" fill="#51515E"/>
<path d="M200.824 342L207.02 367.118H199.275L184.059 338.997L200.824 342Z" fill="#51515E"/>
<path d="M201.37 341.909H44.282L38.0859 240.798H209.48L201.37 341.909Z" fill="#D8D8FF"/>
<path d="M221.325 302.775C219.138 308.145 211.667 314.424 206.291 312.24C200.915 310.056 199.821 300.318 202.008 295.039C204.195 289.67 210.209 287.122 215.585 289.215C220.87 291.399 223.512 297.497 221.325 302.775Z" fill="#670B78"/>
<path d="M215.428 289.13L206.145 312.179L206.483 312.315L215.766 289.266L215.428 289.13Z" fill="#FDFDFF"/>
<path d="M221.811 296.371L212.129 297.509L212.172 297.871L221.854 296.732L221.811 296.371Z" fill="#FDFDFF"/>
<path d="M220.909 303.627L209.145 305.004L209.187 305.365L220.952 303.988L220.909 303.627Z" fill="#FDFDFF"/>
<path d="M204.531 290.989L204.293 291.265L211.675 297.625L211.913 297.35L204.531 290.989Z" fill="#FDFDFF"/>
<path d="M201.191 297.578L200.953 297.854L209.928 305.575L210.166 305.299L201.191 297.578Z" fill="#FDFDFF"/>
<path d="M226.337 327.984C221.781 329.713 213.58 328.712 211.758 324.162C210.027 319.611 215.403 313.332 219.959 311.603C224.515 309.874 229.617 312.149 231.349 316.699C233.171 321.159 230.893 326.255 226.337 327.984Z" fill="#670B78"/>
<path d="M231.392 316.468L211.75 324.021L211.881 324.361L231.523 316.808L231.392 316.468Z" fill="#FDFDFF"/>
<path d="M224.345 319.27L224.109 319.548L230.359 324.851L230.595 324.573L224.345 319.27Z" fill="#FDFDFF"/>
<path d="M217.951 321.64L217.715 321.917L225.348 328.405L225.585 328.127L217.951 321.64Z" fill="#FDFDFF"/>
<path d="M223.903 310.779L223.539 310.793L223.845 318.978L224.209 318.964L223.903 310.779Z" fill="#FDFDFF"/>
<path d="M217.95 312.518L217.586 312.532L217.968 322.536L218.332 322.522L217.95 312.518Z" fill="#FDFDFF"/>
<path d="M187.34 326.164C191.896 327.894 200.096 326.893 201.919 322.342C203.65 317.792 198.274 311.512 193.718 309.783C189.162 308.054 184.06 310.329 182.328 314.879C180.506 319.339 182.784 324.435 187.34 326.164Z" fill="#670B78"/>
<path d="M182.326 314.589L182.195 314.929L201.838 322.482L201.969 322.143L182.326 314.589Z" fill="#FDFDFF"/>
<path d="M189.239 317.399L182.988 322.701L183.224 322.978L189.475 317.676L189.239 317.399Z" fill="#FDFDFF"/>
<path d="M195.736 319.875L188.102 326.362L188.338 326.64L195.972 320.152L195.736 319.875Z" fill="#FDFDFF"/>
<path d="M189.706 308.992L189.406 317.177L189.77 317.191L190.07 309.005L189.706 308.992Z" fill="#FDFDFF"/>
<path d="M195.739 310.604L195.352 320.608L195.716 320.622L196.103 310.618L195.739 310.604Z" fill="#FDFDFF"/>
<path d="M209.485 341.909C209.211 341.909 209.029 341.727 209.029 341.454L205.84 312.331C205.84 312.058 206.022 311.785 206.295 311.785C206.569 311.785 206.842 311.967 206.842 312.24L209.576 337.359L211.307 324.071C211.307 323.798 211.58 323.616 211.854 323.616C212.127 323.616 212.309 323.889 212.309 324.162L210.031 341.454C209.94 341.727 209.758 341.909 209.485 341.909Z" fill="#51515E"/>
<path d="M209.484 341.909C209.301 341.909 209.119 341.818 209.028 341.636L201.374 322.524C201.283 322.251 201.374 321.978 201.647 321.887C201.921 321.796 202.194 321.887 202.285 322.16L209.939 341.272C210.03 341.545 209.939 341.818 209.666 341.909C209.666 341.909 209.575 341.909 209.484 341.909Z" fill="#51515E"/>
<path d="M196.724 331.807C192.077 337.904 189.07 346.55 189.07 352.921C189.07 363.933 198 369.939 208.934 369.939C219.959 369.939 228.798 363.933 228.798 352.921C228.798 346.55 225.791 337.904 221.144 331.807H196.724Z" fill="#BB76CC"/>
<g opacity="0.49">
<path d="M196.727 331.989C196.727 331.989 209.848 358.837 228.162 358.109C228.162 358.109 230.714 339.452 221.237 331.989H196.727Z" fill="#E9E9EB"/>
</g>
<path d="M177.227 284.3H62.873C59.2283 284.3 56.3125 281.388 56.3125 277.748V261.821C56.3125 258.181 59.2283 255.269 62.873 255.269H177.227C180.871 255.269 183.787 258.181 183.787 261.821V277.748C183.787 281.388 180.871 284.3 177.227 284.3ZM62.873 256.179C59.775 256.179 57.3148 258.727 57.3148 261.73V277.657C57.3148 280.751 59.8661 283.208 62.873 283.208H177.227C180.325 283.208 182.785 280.66 182.785 277.657V261.73C182.785 258.636 180.234 256.179 177.227 256.179H62.873Z" fill="#51515E"/>
<path d="M116.814 267.464C114.445 267.464 112.531 265.552 112.531 263.277C112.531 261.002 114.445 259.091 116.814 259.091C119.183 259.091 121.096 261.002 121.096 263.277C121.096 265.643 119.183 267.464 116.814 267.464ZM116.814 260.092C114.991 260.092 113.442 261.548 113.442 263.277C113.442 265.006 114.9 266.463 116.814 266.463C118.727 266.463 120.185 265.006 120.185 263.277C120.185 261.548 118.636 260.092 116.814 260.092Z" fill="#51515E"/>
<path d="M176.497 324.708H64.9676C60.594 324.708 56.9492 321.159 56.9492 316.699V303.594C56.9492 299.226 60.5028 295.585 64.9676 295.585H176.497C180.87 295.585 184.515 299.135 184.515 303.594V316.699C184.515 321.159 180.87 324.708 176.497 324.708ZM64.9676 296.678C61.1407 296.678 57.9515 299.863 57.9515 303.685V316.791C57.9515 320.613 61.1407 323.798 64.9676 323.798H176.497C180.324 323.798 183.513 320.613 183.513 316.791V303.685C183.513 299.863 180.324 296.678 176.497 296.678H64.9676Z" fill="#51515E"/>
<path d="M117.451 307.963C115.081 307.963 113.168 306.051 113.168 303.776C113.168 301.501 115.081 299.59 117.451 299.59C119.82 299.59 121.733 301.501 121.733 303.776C121.733 306.051 119.82 307.963 117.451 307.963ZM117.451 300.5C115.628 300.5 114.079 301.956 114.079 303.685C114.079 305.414 115.537 306.871 117.451 306.871C119.273 306.871 120.822 305.414 120.822 303.685C120.822 301.956 119.273 300.5 117.451 300.5Z" fill="#51515E"/>
<path d="M523.475 239.069L536.141 366.3C536.232 367.392 535.685 368.393 534.774 368.484C533.954 368.575 533.134 367.847 533.042 366.846L517.643 240.07C517.37 238.068 518.464 236.157 520.104 235.793C521.744 235.52 523.202 236.885 523.475 238.887C523.475 238.978 523.475 238.978 523.475 239.069Z" fill="#D8D8FF"/>
<path d="M517.826 246.168C517.826 246.168 521.835 245.44 524.842 242.983L524.387 238.796L516.004 240.526L517.826 246.168Z" fill="#BFBFDD"/>
<path d="M389.074 239.069L376.408 366.3C376.317 367.392 376.864 368.393 377.775 368.484C378.595 368.575 379.415 367.847 379.506 366.846L394.905 240.07C395.179 238.068 394.085 236.157 392.445 235.793C390.805 235.52 389.347 236.885 389.074 238.887C389.074 238.978 389.074 238.978 389.074 239.069Z" fill="#D8D8FF"/>
<path d="M394.633 246.168C394.633 246.168 390.624 245.44 387.617 242.983L388.073 238.796L396.456 240.526L394.633 246.168Z" fill="#BFBFDD"/>
<path d="M539.42 239.979H371.306C369.575 239.979 368.117 238.523 368.117 236.794V233.518C368.117 231.789 369.575 230.333 371.306 230.333H539.42C541.151 230.333 542.609 231.789 542.609 233.518V236.794C542.609 238.523 541.242 239.979 539.42 239.979Z" fill="#D8D8FF"/>
<path d="M500.33 101.009C498.873 93.5461 490.307 87.5395 480.011 87.5395C477.46 87.5395 475.091 87.9035 472.813 88.5406C470.899 76.9825 458.051 67.9726 442.47 67.9726C436.912 67.9726 431.627 69.1557 427.162 71.1579C420.693 56.9606 403.198 46.7676 382.514 46.7676C357.821 46.7676 337.502 61.42 335.406 79.9858C333.948 79.7128 332.399 79.6217 330.759 79.6217C318.64 79.6217 308.891 87.0845 308.891 96.3674C308.891 98.0055 309.164 99.5527 309.711 100.918H500.33V101.009Z" fill="#89E541"/>
<g opacity="0.7">
<path d="M541.607 95.5483H488.12C484.111 95.5483 480.922 92.363 480.922 88.3586V34.8455C480.922 30.8411 484.111 27.6558 488.12 27.6558H541.607C545.616 27.6558 548.805 30.8411 548.805 34.8455V88.2676C548.805 92.272 545.616 95.5483 541.607 95.5483Z" fill="#FDFDFF"/>
</g>
<path d="M514.819 87.1757C528.96 87.1757 540.423 75.7261 540.423 61.6023C540.423 47.4784 528.96 36.0288 514.819 36.0288C500.678 36.0288 489.215 47.4784 489.215 61.6023C489.215 75.7261 500.678 87.1757 514.819 87.1757Z" fill="#BB76CC"/>
<path d="M523.109 68.1548C526.179 68.1548 528.667 65.6693 528.667 62.6033C528.667 59.5373 526.179 57.0518 523.109 57.0518C520.039 57.0518 517.551 59.5373 517.551 62.6033C517.551 65.6693 520.039 68.1548 523.109 68.1548Z" fill="#CFB7AD"/>
<path d="M502.882 67.7906C505.952 67.7906 508.441 65.3051 508.441 62.239C508.441 59.173 505.952 56.6875 502.882 56.6875C499.813 56.6875 497.324 59.173 497.324 62.239C497.324 65.3051 499.813 67.7906 502.882 67.7906Z" fill="#CFB7AD"/>
<path d="M504.25 67.7906C507.319 67.7906 509.808 65.3051 509.808 62.239C509.808 59.173 507.319 56.6875 504.25 56.6875C501.18 56.6875 498.691 59.173 498.691 62.239C498.691 65.3051 501.18 67.7906 504.25 67.7906Z" fill="#D8D8FF"/>
<path d="M524.566 68.1548C527.636 68.1548 530.124 65.6693 530.124 62.6033C530.124 59.5373 527.636 57.0518 524.566 57.0518C521.496 57.0518 519.008 59.5373 519.008 62.6033C519.008 65.6693 521.496 68.1548 524.566 68.1548Z" fill="#D8D8FF"/>
<path d="M470.992 116.389C470.992 116.389 472.086 127.31 475.821 128.22C479.557 129.131 502.064 115.206 502.064 115.206L499.786 101.464L470.992 113.022V116.389Z" fill="#DB9595"/>
<path d="M470.9 78.0747L480.467 94.0923L470.262 95.6394L470.9 78.0747Z" fill="#A96CB7"/>
<path d="M403.746 347.642V367.937L420.421 367.755V342.091L403.746 347.642Z" fill="#DB9595"/>
<path d="M404.02 353.012L420.33 357.654L420.421 353.103L404.02 353.012Z" fill="#BF8080"/>
<path d="M452.859 348.917V363.933L469.17 363.751V344.821L452.859 348.917Z" fill="#DB9595"/>
<path d="M470.901 137.321C470.901 137.321 477.461 162.076 477.735 176.364C478.555 215.953 475.275 353.012 475.275 353.012H447.301C447.301 353.012 441.196 220.048 445.297 188.013L426.435 353.103L396.73 353.012C396.73 353.012 401.469 174.999 426.435 137.321H470.901Z" fill="#670B78"/>
<mask id="mask0_232_183" style="mask-type:alpha" maskUnits="userSpaceOnUse" x="396" y="137" width="82" height="217">
<path d="M470.901 137.321C470.901 137.321 477.461 162.076 477.735 176.364C478.555 215.953 475.275 353.012 475.275 353.012H447.301C447.301 353.012 441.196 220.048 445.297 188.013L426.435 353.103L396.73 353.012C396.73 353.012 401.469 174.999 426.435 137.321H470.901Z" fill="#670B78"/>
</mask>
<g mask="url(#mask0_232_183)">
<path d="M404.018 361.203C403.745 361.203 403.562 361.021 403.562 360.748V134.591C403.562 134.318 403.745 134.136 404.018 134.136C404.291 134.136 404.474 134.318 404.474 134.591V360.748C404.474 360.93 404.291 361.203 404.018 361.203Z" fill="white"/>
<path d="M420.42 361.203C420.147 361.203 419.965 361.021 419.965 360.748V134.591C419.965 134.318 420.147 134.136 420.42 134.136C420.694 134.136 420.876 134.318 420.876 134.591V360.748C420.876 360.93 420.694 361.203 420.42 361.203Z" fill="white"/>
<path d="M436.819 361.203C436.546 361.203 436.363 361.021 436.363 360.748V134.591C436.363 134.318 436.546 134.136 436.819 134.136C437.092 134.136 437.274 134.318 437.274 134.591V360.748C437.183 360.93 437.001 361.203 436.819 361.203Z" fill="white"/>
<path d="M453.131 361.203C452.858 361.203 452.676 361.021 452.676 360.748V134.591C452.676 134.318 452.858 134.136 453.131 134.136C453.405 134.136 453.587 134.318 453.587 134.591V360.748C453.587 360.93 453.405 361.203 453.131 361.203Z" fill="white"/>
<path d="M469.534 361.203C469.26 361.203 469.078 361.021 469.078 360.748V134.591C469.078 134.318 469.26 134.136 469.534 134.136C469.807 134.136 469.989 134.318 469.989 134.591V360.748C469.989 360.93 469.807 361.203 469.534 361.203Z" fill="white"/>
</g>
<path d="M456.685 53.6843C456.685 53.6843 459.236 43.1273 453.769 43.3093C453.769 43.3093 447.847 40.215 443.382 43.3093C438.917 46.4036 433.268 53.1383 444.202 61.056L456.685 53.6843Z" fill="#670B78"/>
<path d="M441.375 69.2468C441.375 69.2468 418.14 75.0713 415.771 80.9869C413.31 86.9025 408.663 105.65 410.759 114.751L431.079 111.748L422.24 145.421H474.998C474.998 145.421 474.724 81.3509 470.988 78.0746C467.161 74.7073 452.765 69.1558 452.765 69.1558L441.375 69.2468Z" fill="#BB76CC"/>
<mask id="mask1_232_183" style="mask-type:alpha" maskUnits="userSpaceOnUse" x="410" y="69" width="65" height="77">
<path d="M441.375 69.2468C441.375 69.2468 418.14 75.0713 415.771 80.9869C413.31 86.9025 408.663 105.65 410.759 114.751L431.079 111.748L422.24 145.421H474.998C474.998 145.421 474.724 81.3509 470.988 78.0746C467.161 74.7073 452.765 69.1558 452.765 69.1558L441.375 69.2468Z" fill="#BB76CC"/>
</mask>
<g mask="url(#mask1_232_183)">
<path d="M436.73 74.4344C438.006 75.5265 439.099 76.7096 439.919 78.1657C441.013 79.9859 443.746 78.3478 442.744 76.5276C441.742 74.8894 440.466 73.4333 439.008 72.1592C438.37 71.6131 437.368 71.5221 436.73 72.1592C436.183 72.7052 436.092 73.8883 436.73 74.4344Z" fill="#FDFDFF"/>
<path d="M459.143 89.1782C461.786 87.7221 464.337 85.9019 466.615 83.8087C468.164 82.3526 465.886 80.0773 464.337 81.5335C462.241 83.4447 460.054 85.0828 457.594 86.4479C455.681 87.358 457.321 90.1793 459.143 89.1782Z" fill="#FDFDFF"/>
<path d="M424.882 101.919C425.52 102.647 426.158 103.375 426.705 104.194C427.251 104.831 428.436 104.831 428.983 104.194C429.621 103.466 429.529 102.647 428.983 101.919C428.345 101.191 427.707 100.463 427.16 99.6438C426.614 99.0068 425.429 99.0068 424.882 99.6438C424.245 100.372 424.336 101.191 424.882 101.919Z" fill="#FDFDFF"/>
<path d="M408.393 79.6219C411.399 80.441 414.133 81.8061 416.775 83.5353C418.507 84.7184 420.147 81.8971 418.416 80.714C415.591 78.8028 412.493 77.3467 409.304 76.4366C407.299 75.9816 406.388 79.0759 408.393 79.6219Z" fill="#FDFDFF"/>
<path d="M462.878 77.5288C463.242 75.5266 463.607 73.6154 464.062 71.6132C464.427 69.611 461.329 68.7009 460.964 70.7941C460.6 72.7963 460.235 74.7075 459.78 76.7097C459.415 78.7119 462.513 79.622 462.878 77.5288Z" fill="#FDFDFF"/>
<path d="M441.101 90.543C441.192 92.6362 440.19 94.4564 438.458 95.4575C436.636 96.4586 438.276 99.2799 440.098 98.2788C442.832 96.7316 444.472 93.7284 444.381 90.543C444.29 88.4498 441.01 88.4498 441.101 90.543Z" fill="#FDFDFF"/>
<path d="M447.663 111.384C450.488 112.203 453.222 113.113 456.046 113.932C458.051 114.569 458.871 111.384 456.866 110.838C454.042 110.019 451.308 109.108 448.483 108.289C446.57 107.652 445.75 110.838 447.663 111.384Z" fill="#FDFDFF"/>
<path d="M469.074 103.284C471.534 102.283 473.903 101.282 476.363 100.281C478.277 99.4618 477.457 96.3675 475.543 97.1865C473.083 98.1876 470.714 99.1887 468.254 100.19C466.249 100.918 467.16 104.103 469.074 103.284Z" fill="#FDFDFF"/>
<path d="M468.621 120.485C465.431 120.485 462.333 120.849 459.327 121.577C457.322 122.123 458.142 125.217 460.147 124.671C462.971 123.943 465.705 123.67 468.621 123.67C470.716 123.761 470.716 120.485 468.621 120.485Z" fill="#FDFDFF"/>
<path d="M446.751 140.507C448.392 138.595 450.123 136.775 451.945 135.046C453.494 133.59 451.216 131.315 449.667 132.771C447.845 134.5 446.114 136.32 444.473 138.231C443.198 139.778 445.476 142.054 446.751 140.507Z" fill="#FDFDFF"/>
<path d="M431.533 123.943C433.082 123.943 434.631 124.307 436.089 124.853C436.909 125.126 437.82 124.489 438.094 123.761C438.367 122.851 437.82 122.123 437 121.759C435.269 121.122 433.447 120.758 431.624 120.758C429.438 120.667 429.438 123.852 431.533 123.943Z" fill="#FDFDFF"/>
<path d="M413.402 104.922C410.486 106.196 407.844 107.743 405.293 109.654C403.653 110.838 405.293 113.659 406.933 112.476C409.484 110.564 412.127 109.017 415.042 107.743C416.956 106.924 415.316 104.103 413.402 104.922Z" fill="#FDFDFF"/>
</g>
<path d="M430.809 111.839V99.6436L434.544 118.118L432.449 118.573L430.809 111.839Z" fill="#A96CB7"/>
<path d="M441.833 62.2393V69.1559C447.483 74.3434 453.588 70.248 452.859 69.1559V63.4224L441.742 57.0518" fill="#DB9595"/>
<path d="M452.95 62.8761L452.859 65.7884C450.672 66.7895 442.562 64.1503 441.742 57.1426L452.95 62.8761Z" fill="#BF8080"/>
<path d="M452.129 46.1304C452.129 46.1304 447.482 51.8639 443.199 53.047C443.199 53.047 442.288 51.4089 440.375 51.8639C438.461 52.228 438.643 56.9604 442.288 57.9615C442.288 57.9615 444.384 63.513 450.762 64.2411C450.762 64.2411 458.234 65.8793 455.956 53.2291C455.956 53.2291 454.68 47.1315 452.129 46.1304Z" fill="#DB9595"/>
<path d="M446.116 51.7729C446.025 51.7729 445.934 51.6819 445.934 51.5909C445.934 51.4999 446.025 51.4088 446.116 51.4088L449.487 50.8628C449.578 50.8628 449.669 50.9538 449.669 51.0448C449.669 51.1358 449.578 51.2268 449.487 51.2268L446.116 51.7729Z" fill="#610008"/>
<path d="M452.858 50.8631C452.767 50.8631 452.676 50.7721 452.676 50.6811C452.676 50.5901 452.767 50.4991 452.858 50.4991L456.229 50.2261C456.321 50.2261 456.412 50.3171 456.412 50.4081C456.412 50.4991 456.321 50.5901 456.229 50.5901L452.858 50.8631Z" fill="#610008"/>
<path d="M452.129 53.6845C452.129 53.4115 453.678 51.4093 455.683 52.9564C455.865 53.2294 454.954 55.5047 452.129 53.6845Z" fill="white"/>
<path d="M455.593 53.2294C455.593 53.7754 455.137 54.2305 454.591 54.3215C453.953 54.4125 453.497 53.9574 453.406 53.4114C453.406 52.8653 453.862 52.4103 454.409 52.3193C455.046 52.2283 455.593 52.6833 455.593 53.2294Z" fill="#670B78"/>
<path d="M445.75 54.0483C445.75 53.7752 447.299 51.773 449.304 53.3202C449.395 53.5932 448.484 55.8684 445.75 54.0483Z" fill="white"/>
<path d="M449.214 53.5931C449.214 54.1392 448.759 54.5942 448.212 54.6852C447.574 54.7762 447.118 54.3212 447.027 53.7751C447.027 53.2291 447.483 52.774 448.03 52.683C448.667 52.592 449.214 53.0471 449.214 53.5931Z" fill="#670B78"/>
<path d="M451.038 57.8707C450.947 57.8707 450.856 57.7797 450.856 57.6887C450.856 57.5977 450.947 57.5067 451.038 57.5067C451.402 57.5067 451.676 57.4157 451.767 57.1427C452.04 56.5056 451.038 54.9585 450.673 54.4124C450.582 54.3214 450.673 54.2304 450.673 54.2304C450.764 54.1394 450.856 54.2304 450.856 54.2304C451.038 54.4124 452.496 56.3236 452.04 57.2337C451.949 57.6887 451.584 57.8707 451.038 57.8707Z" fill="#FE7D6B"/>
<path d="M453.313 56.5057C453.404 57.3248 454.133 57.9619 454.953 57.8708C455.774 57.7798 456.411 57.0518 456.32 56.2327C456.229 55.4136 455.5 54.7765 454.68 54.8676C453.86 54.9586 453.222 55.6866 453.313 56.5057Z" fill="#CE8D8D"/>
<path d="M445.567 56.8695C445.658 57.6886 446.387 58.3256 447.207 58.2346C448.027 58.1436 448.665 57.4155 448.574 56.5965C448.483 55.7774 447.754 55.1403 446.934 55.2313C446.114 55.3223 445.476 56.0504 445.567 56.8695Z" fill="#CE8D8D"/>
<path d="M451.401 59.873C450.216 59.873 449.396 58.8719 449.396 58.8719C449.305 58.7809 449.396 58.6899 449.396 58.6899C449.487 58.5989 449.578 58.6899 449.578 58.6899C449.669 58.7809 450.945 60.328 452.767 59.0539C452.858 59.0539 452.95 59.0539 452.95 59.0539C452.95 59.1449 452.95 59.2359 452.95 59.2359C452.403 59.691 451.856 59.873 451.401 59.873Z" fill="#FE7D6B"/>
<path d="M442.2 56.5057C441.106 56.4147 439.922 54.1395 440.013 53.3204C440.013 53.0474 440.104 52.8654 440.286 52.7744C440.742 52.4103 441.38 52.5013 441.471 52.5013C441.562 52.5013 441.653 52.5923 441.562 52.6833C441.562 52.7744 441.471 52.8654 441.38 52.7744C441.38 52.7744 440.742 52.6833 440.468 52.9564C440.377 53.0474 440.286 53.1384 440.286 53.3204C440.195 54.1395 441.38 56.1417 442.2 56.2327C442.291 56.2327 442.382 56.3237 442.291 56.4147C442.291 56.5057 442.291 56.5057 442.2 56.5057Z" fill="#FE7D6B"/>
<path d="M440.561 54.7768C440.47 54.7768 440.47 54.7768 440.379 54.6857C440.379 54.5947 440.379 54.5037 440.47 54.5037C440.47 54.5037 441.108 54.3217 441.563 53.5026C441.563 53.4116 441.655 53.4116 441.746 53.4116C441.837 53.4116 441.837 53.5026 441.837 53.5936C441.29 54.5947 440.561 54.7768 440.561 54.7768Z" fill="#FE7D6B"/>
<path d="M452.859 363.751L453.042 375.127L453.862 386.139C453.862 386.685 454.408 387.14 454.955 387.231L495.776 388.233C497.507 388.324 498.236 386.139 496.778 385.229C494.956 384.137 478.19 380.406 475.548 378.04C475.548 378.04 469.625 373.762 468.896 363.66H452.859V363.751Z" fill="#93FF46"/>
<path d="M420.422 365.753C420.422 365.753 428.258 380.952 425.251 386.23H402.198C402.198 386.23 397.004 379.041 404.02 365.753H420.422Z" fill="#93FF46"/>
<g opacity="0.35">
<path d="M445.295 188.013L448.302 170.722L444.02 208.854L445.295 188.013Z" fill="#A96CB7"/>
</g>
<path d="M514.452 79.4398L494.953 92.7271L489.668 84.9913L509.167 71.704C510.807 70.5209 513.085 70.976 514.27 72.7051L515.454 74.4343C516.639 75.9815 516.183 78.2567 514.452 79.4398Z" fill="black"/>
<path d="M526.573 97.0042L507.074 110.292L501.789 102.556L521.288 89.2685C522.929 88.0854 525.206 88.5404 526.391 90.2696L527.576 91.9988C528.669 93.6369 528.213 95.9121 526.573 97.0042Z" fill="black"/>
<path d="M491.218 74.8892L516.731 112.112L498.143 124.762C489.578 130.587 477.915 128.402 471.992 119.847L467.527 113.386C461.695 104.831 464.065 93.3639 472.63 87.5394L491.218 74.8892Z" fill="#670B78"/>
<path d="M503.426 120.758C503.426 120.758 503.153 120.94 502.788 121.668L498.232 124.762C489.667 130.587 478.004 128.402 472.081 119.848L469.895 116.571C469.895 116.662 486.751 130.951 503.426 120.758Z" fill="#520A63"/>
<path d="M482.47 106.379C482.106 106.652 481.65 106.925 481.286 107.107C482.197 107.289 482.561 108.472 481.468 109.2C480.648 109.746 479.828 110.201 479.008 110.565C479.646 110.929 479.645 112.021 478.461 112.567C475.91 113.841 473.905 114.569 471.445 114.569C470.898 114.569 470.351 114.569 469.805 114.478C469.805 114.478 445.021 131.315 430.715 136.593C426.25 138.232 422.879 138.778 421.603 137.322C420.783 136.411 420.054 135.137 419.325 133.863C415.407 126.4 413.676 114.387 413.676 114.387L430.988 111.839L432.446 118.119L462.606 106.561C462.606 106.561 462.606 106.561 462.697 106.47C465.431 104.103 467.618 102.738 471.08 101.555C472.721 101.009 473.632 102.92 471.992 103.466C470.989 103.83 470.078 104.376 469.258 105.013C472.629 105.013 476.001 104.376 478.917 103.011C480.466 102.283 481.468 104.194 479.828 105.013C478.096 105.833 476.365 106.47 474.543 106.925C476.912 106.652 479.19 106.106 481.286 104.74C482.926 103.648 484.019 105.286 482.47 106.379Z" fill="#DB9595"/>
<path d="M432.539 118.118L426.434 121.941L431.81 115.206L432.539 118.118Z" fill="#BF8080"/>
<path d="M471.446 107.288C470.626 107.288 469.897 107.197 469.533 107.015C469.441 106.924 469.441 106.833 469.441 106.833C469.533 106.742 469.624 106.742 469.624 106.742C470.353 107.197 473.724 106.924 474.909 106.742C475 106.742 475.091 106.833 475.091 106.924C475.091 107.015 475 107.106 474.909 107.106C474.909 107.015 472.995 107.288 471.446 107.288Z" fill="#FE7D6B"/>
<path d="M471.9 109.382C471.354 109.382 470.807 109.382 470.26 109.291C470.169 109.291 470.078 109.2 470.078 109.109C470.078 109.018 470.169 108.927 470.26 108.927C474.725 109.655 481.012 106.924 481.103 106.924C481.195 106.924 481.286 106.924 481.286 107.015C481.286 107.106 481.286 107.197 481.195 107.197C481.286 107.288 476.274 109.382 471.9 109.382Z" fill="#FE7D6B"/>
<path d="M472.633 112.021C471.813 112.021 471.175 111.93 470.811 111.566C470.719 111.475 470.719 111.384 470.811 111.293C470.902 111.202 470.993 111.202 471.084 111.293C472.177 112.294 477.189 111.02 479.011 110.474C479.102 110.474 479.193 110.474 479.193 110.565C479.193 110.656 479.193 110.747 479.102 110.747C478.829 110.838 475.093 112.021 472.633 112.021Z" fill="#FE7D6B"/>
<path d="M468.986 353.103L452.949 357.654V353.012L468.986 353.103Z" fill="#BF8080"/>
<g opacity="0.59">
<path d="M430.808 136.593C426.343 138.232 422.972 138.778 421.696 137.321C420.876 136.411 420.147 135.137 419.418 133.863C419.418 133.772 426.525 131.315 430.808 136.593Z" fill="#FE9587"/>
</g>
<path d="M191.44 147.514C189.982 140.416 181.417 134.136 171.12 134.136C168.569 134.136 166.2 134.591 163.922 135.228C162.009 123.67 149.161 114.66 133.58 114.66C128.021 114.66 122.737 115.843 118.272 117.845C111.802 103.648 94.3076 93.4551 73.6237 93.4551C48.9306 93.4551 28.6112 108.107 26.5155 126.673C25.0576 126.4 23.5086 126.309 21.8684 126.309C9.74967 126.309 0 133.681 0 142.964C0 144.602 0.273355 146.422 0.820066 147.423H191.44V147.514Z" fill="#89E541"/>
<path d="M152.715 115.206L162.738 103.466L193.171 118.209L193.08 118.3L208.753 122.305L215.495 132.589L187.522 133.044C186.246 132.953 184.971 132.68 183.877 132.134L152.715 115.206Z" fill="#896863"/>
<path d="M75.447 74.3432L58.3167 42.7632C57.5878 40.488 53.8519 36.3016 53.5786 36.2105C51.3006 35.2095 50.2072 35.1184 47.8381 34.4814C46.0157 33.9353 45.0134 35.7555 46.8358 36.3016C48.3848 36.7566 48.9315 37.4847 50.4805 38.1217C50.3894 38.1217 50.3894 38.1217 50.2983 38.1217C48.567 38.2127 46.7447 38.1217 45.0134 37.7577C44.1022 37.5757 43.6466 37.4847 43.0088 36.7566C42.5532 36.2106 42.0065 35.5735 41.5509 35.0274C40.4575 33.8443 39.0907 34.4814 39.0907 35.6645C37.9062 35.2095 36.2661 36.3926 37.2684 37.6667C37.2684 37.7577 37.3595 37.7577 37.4506 37.8487C36.1749 37.8487 35.7193 38.7588 36.6305 40.0329C36.995 40.579 37.3595 41.034 37.9062 41.398C36.7216 41.6711 35.8105 42.4902 37.4506 44.0373C38.9996 45.4934 41.2776 45.5845 43.2822 46.2215C45.2868 46.7676 47.2003 49.0428 48.7493 50.4989C48.8404 50.5899 49.0226 50.6809 49.1138 50.772C51.7562 58.2347 62.6904 85.6283 64.4216 86.3564C66.4263 87.2665 76.6315 93.273 76.6315 93.273L82.9187 76.7095L75.447 74.3432Z" fill="#896863"/>
<path d="M137.407 60.146C137.407 60.146 132.578 56.3237 129.115 58.5989C125.653 60.8741 124.012 65.0605 119.639 65.0605C115.265 65.0605 113.352 68.1548 113.352 68.1548C113.352 68.1548 115.63 83.9903 136.587 81.8971C136.587 81.8971 144.787 81.1691 146.61 76.1636C146.61 76.1636 142.236 71.9772 140.96 69.3379C139.685 66.6077 140.414 61.8752 137.407 60.146Z" fill="#670B78"/>
<path d="M129.936 70.6118C129.936 70.6118 128.387 83.171 123.648 86.4473C123.648 86.4473 132.487 89.2686 139.503 87.8125L138.41 74.7982L129.936 70.6118Z" fill="#896863"/>
<path d="M138.501 75.9816C138.501 75.9816 135.95 79.44 129.207 74.7985L130.027 70.7031L138.501 75.9816Z" fill="#775A57"/>
<path d="M129.937 70.7937C129.937 70.7937 132.852 77.5284 139.231 75.7082C139.231 75.7082 142.875 74.4341 142.238 69.7016C142.146 68.7915 141.873 67.7904 141.417 66.6073C140.688 64.7871 139.413 62.6029 137.408 60.0547C137.408 60.0547 135.13 61.6018 134.584 62.876C134.037 64.1501 131.941 66.9714 130.392 66.9714C130.392 66.9714 128.296 65.8793 127.476 67.1534C127.476 67.1534 125.836 70.5207 129.937 70.7937Z" fill="#896863"/>
<path d="M137.405 64.1503C137.314 64.1503 137.223 64.0593 137.223 63.9683C137.223 63.8773 137.223 63.7863 137.314 63.7863L139.956 63.2402C140.047 63.2402 140.138 63.2402 140.138 63.3312C140.138 63.4223 140.138 63.5133 140.047 63.5133L137.405 64.1503Z" fill="#5A0B6D"/>
<path d="M131.577 66.1523C131.486 66.1523 131.395 66.0613 131.395 65.9703C131.395 65.8793 131.395 65.7882 131.486 65.7882L134.128 65.2422C134.219 65.2422 134.31 65.2422 134.31 65.3332C134.31 65.4242 134.31 65.5152 134.219 65.5152L131.577 66.1523Z" fill="#5A0B6D"/>
<path d="M137.223 66.4257C137.223 66.1527 138.498 63.6955 140.776 64.9696C141.05 65.1516 140.503 67.7909 137.223 66.4257Z" fill="white"/>
<path d="M141.14 65.3335C141.322 65.9706 140.866 66.6986 140.137 66.8807C139.408 67.0627 138.679 66.6986 138.497 66.0616C138.315 65.4245 138.771 64.6964 139.5 64.5144C140.228 64.2414 140.957 64.6964 141.14 65.3335Z" fill="black"/>
<path d="M131.848 68.4277C131.848 68.1547 133.123 65.6974 135.401 66.9716C135.584 67.1536 135.128 69.7018 131.848 68.4277Z" fill="white"/>
<path d="M135.765 67.2444C135.947 67.8814 135.491 68.6095 134.762 68.7915C134.033 68.9735 133.304 68.6095 133.122 67.9724C132.94 67.3354 133.396 66.6073 134.125 66.4253C134.853 66.2433 135.582 66.6073 135.765 67.2444Z" fill="black"/>
<path d="M138.227 70.2477C138.136 70.2477 138.136 70.2477 138.044 70.1567C138.044 70.0657 138.044 69.9746 138.136 69.9746C138.5 69.8836 138.682 69.7016 138.773 69.5196C138.864 68.7005 137.133 67.2444 136.404 66.7893C136.313 66.6983 136.313 66.6073 136.404 66.6073C136.495 66.5163 136.587 66.5163 136.587 66.6073C136.86 66.7893 139.32 68.5185 139.138 69.6106C139.047 69.8836 138.773 70.1567 138.227 70.2477Z" fill="#513E3A"/>
<path d="M131.121 70.7939C131.121 71.704 131.85 72.4321 132.761 72.4321C133.672 72.4321 134.401 71.704 134.401 70.7939C134.401 69.8838 133.672 69.1558 132.761 69.1558C131.85 69.2468 131.121 69.9748 131.121 70.7939Z" fill="#684F4D"/>
<path d="M139.957 68.3369C139.957 69.247 140.686 69.975 141.597 69.975C141.871 69.975 142.053 69.884 142.235 69.793C142.144 68.8829 141.871 67.8818 141.415 66.6987C140.595 66.7897 139.957 67.5178 139.957 68.3369Z" fill="#684F4D"/>
<path d="M138.773 73.0691C137.588 72.8871 136.859 71.704 136.859 71.704C136.859 71.613 136.859 71.613 136.859 71.5219C136.859 71.4309 136.95 71.4309 137.042 71.5219C139.046 72.341 140.049 71.3399 140.049 71.2489C140.14 71.1579 140.231 71.1579 140.231 71.2489C140.322 71.3399 140.322 71.4309 140.231 71.4309C140.231 71.5219 139.228 72.523 137.406 71.886C137.679 72.25 138.226 72.6141 138.773 72.7051C138.864 72.7051 138.955 72.7961 138.864 72.8871C138.864 72.9781 138.773 73.0691 138.773 73.0691Z" fill="#513E3A"/>
<path d="M128.475 68.9737C128.384 68.9737 128.293 68.8827 128.293 68.7917C128.293 68.7007 128.384 68.6097 128.475 68.6097C128.749 68.6097 128.931 68.5186 129.113 68.3366C129.478 67.9726 129.386 67.2445 129.386 67.2445C129.386 67.1535 129.478 67.0625 129.569 67.0625C129.66 67.0625 129.751 67.1535 129.751 67.2445C129.751 67.2445 129.842 68.0636 129.386 68.5186C129.113 68.7917 128.84 68.9737 128.475 68.9737Z" fill="#513E3A"/>
<path d="M128.749 70.2477C128.749 70.2477 128.658 70.2477 128.658 70.1567C127.291 68.6095 128.658 67.0624 128.658 67.0624C128.749 66.9714 128.84 66.9714 128.84 67.0624C128.932 67.1534 128.932 67.2444 128.84 67.2444C128.749 67.3354 127.656 68.6096 128.84 69.9747C128.932 70.0657 128.932 70.1567 128.84 70.1567C128.84 70.2477 128.749 70.2477 128.749 70.2477Z" fill="#513E3A"/>
<path d="M110.346 368.392L125.836 275.108L95.6762 284.027L92.5781 366.299L110.346 368.392Z" fill="#896863"/>
<path d="M95.4922 290.034L121.917 298.862L122.645 290.034H95.4922Z" fill="#775A57"/>
<path d="M92.5777 366.299L92.1221 376.128L91.2109 386.412L133.034 395.786C134.674 396.15 135.768 394.057 134.492 392.965C132.852 391.509 116.633 385.32 114.264 382.59C114.264 382.59 109.252 376.219 110.984 368.393L92.5777 366.299Z" fill="#89E541"/>
<path d="M188.432 367.665L170.391 283.664H139.957L170.391 369.303L188.432 367.665Z" fill="#896863"/>
<path d="M171.757 290.034L145.332 298.68L142.234 290.034H171.757Z" fill="#775A57"/>
<path d="M144.877 153.065L185.698 289.761H73.5312C73.5312 289.761 77.1761 165.443 87.6547 153.065H144.877Z" fill="#BB76CC"/>
<mask id="mask2_232_183" style="mask-type:alpha" maskUnits="userSpaceOnUse" x="74" y="146" width="125" height="200">
<path d="M125.013 174.089C127.018 176.728 128.931 179.276 130.936 181.916C131.3 182.371 131.665 182.735 132.212 182.917C132.758 183.099 133.396 183.008 133.852 182.735C134.763 182.189 135.31 180.824 134.581 179.822C132.576 177.183 130.663 174.635 128.658 171.996C128.294 171.541 127.929 171.177 127.382 170.995C126.836 170.813 126.198 170.904 125.742 171.177C124.922 171.723 124.375 173.088 125.013 174.089Z" fill="#FDFDFF"/>
<path d="M106.697 340.999C111.618 342 116.356 343.365 121.094 345.003C123.645 345.913 124.83 341.818 122.187 340.908C117.449 339.27 112.711 337.905 107.791 336.904C105.148 336.357 104.055 340.453 106.697 340.999Z" fill="#FDFDFF"/>
<path d="M100.597 193.201C100.597 193.292 100.597 193.383 100.597 193.474C100.597 193.292 100.506 193.11 100.506 192.928C100.688 194.475 100.688 196.022 100.506 197.478C100.506 197.296 100.597 197.114 100.597 196.932C100.506 197.751 100.323 198.57 100.141 199.298C99.8678 200.39 100.506 201.664 101.599 201.937C102.693 202.21 103.877 201.573 104.242 200.481C104.971 197.751 105.153 194.93 104.697 192.108C104.606 191.653 104.15 191.107 103.695 190.834C103.239 190.561 102.601 190.47 102.055 190.652C101.508 190.834 101.052 191.107 100.779 191.653C100.506 192.108 100.506 192.564 100.597 193.201Z" fill="#FDFDFF"/>
<path d="M143.331 217.682C141.053 220.959 139.14 224.508 137.5 228.148C137.226 228.694 137.135 229.149 137.317 229.786C137.409 230.241 137.864 230.787 138.32 231.06C139.231 231.516 140.78 231.425 141.236 230.332C142.876 226.692 144.789 223.143 147.067 219.866C147.705 218.956 147.249 217.5 146.338 216.954C145.154 216.317 143.969 216.681 143.331 217.682Z" fill="#FDFDFF"/>
<path d="M163.196 255.633C165.201 257.999 167.115 260.365 169.119 262.823C169.484 263.187 170.121 263.46 170.577 263.46C171.124 263.46 171.762 263.187 172.035 262.823C172.399 262.458 172.673 261.912 172.673 261.366C172.673 260.729 172.399 260.365 172.035 259.91C170.03 257.544 168.117 255.178 166.112 252.721C165.748 252.357 165.11 252.083 164.654 252.083C164.108 252.083 163.47 252.357 163.196 252.721C162.832 253.085 162.559 253.631 162.559 254.177C162.65 254.723 162.832 255.178 163.196 255.633Z" fill="#FDFDFF"/>
<path d="M106.063 271.924C104.149 275.018 102.236 278.021 100.231 281.115C99.5934 282.025 99.9579 283.482 100.96 284.028C101.963 284.574 103.238 284.301 103.876 283.3C105.79 280.205 107.703 277.202 109.708 274.108C110.346 273.198 109.981 271.741 108.979 271.195C107.885 270.649 106.701 270.922 106.063 271.924Z" fill="#FDFDFF"/>
<path d="M98.4078 247.715C94.4897 245.713 90.5716 243.711 86.6536 241.709C85.6513 241.163 84.2845 241.436 83.7378 242.437C83.1911 243.438 83.4644 244.803 84.4667 245.349C88.3848 247.351 92.3029 249.353 96.221 251.356C97.2233 251.902 98.5901 251.629 99.1368 250.627C99.6835 249.717 99.5013 248.261 98.4078 247.715Z" fill="#FDFDFF"/>
<path d="M188.618 337.54C190.805 339.087 192.992 340.544 195.178 342.091C197.456 343.638 199.552 339.998 197.365 338.45C195.178 336.903 192.992 335.447 190.805 333.9C188.527 332.353 186.431 335.993 188.618 337.54Z" fill="#FDFDFF"/>
<path d="M154.631 292.491C157.455 294.494 160.28 296.496 163.105 298.498C165.383 300.045 167.478 296.405 165.292 294.858C162.467 292.855 159.642 290.853 156.818 288.851C154.54 287.213 152.353 290.944 154.631 292.491Z" fill="#FDFDFF"/>
<path d="M97.4063 156.524C96.6773 156.251 96.0395 155.978 95.4017 155.705C95.0372 155.614 94.7639 155.432 94.3994 155.341C94.2171 155.25 94.0349 155.159 93.8527 155.159C93.7616 155.159 93.6704 155.068 93.6704 155.068C93.8527 155.159 93.9438 155.159 93.6704 155.068C92.3037 154.522 91.028 153.885 89.6612 153.248C87.0188 151.974 84.3764 150.609 81.9162 149.061C80.4583 148.242 79.0915 147.332 77.6336 146.331C76.7224 145.694 75.2645 146.149 74.7178 147.059C74.1711 148.151 74.5356 149.334 75.4468 149.971C80.4583 153.248 85.652 156.16 91.2102 158.526C92.8504 159.254 94.5816 159.982 96.3129 160.62C97.3152 160.984 98.6819 160.164 98.9553 159.163C99.1375 157.98 98.4997 156.979 97.4063 156.524Z" fill="#FDFDFF"/>
<path d="M145.426 165.352C145.882 164.897 146.337 164.442 146.702 164.078C146.884 163.896 147.066 163.623 147.157 163.349C147.248 163.076 147.339 162.803 147.339 162.53C147.339 162.257 147.248 161.984 147.157 161.711C147.066 161.438 146.884 161.256 146.702 160.983C146.519 160.892 146.428 160.801 146.246 160.619C145.882 160.437 145.517 160.346 145.153 160.346C144.97 160.346 144.788 160.437 144.606 160.437C144.241 160.528 143.968 160.71 143.695 160.983C143.239 161.438 142.784 161.893 142.419 162.257C142.237 162.439 142.055 162.712 141.963 162.985C141.872 163.258 141.781 163.532 141.781 163.805C141.781 164.078 141.872 164.351 141.963 164.624C142.055 164.897 142.237 165.079 142.419 165.352C142.601 165.443 142.692 165.534 142.875 165.716C143.239 165.898 143.604 165.989 143.968 165.989C144.15 165.989 144.333 165.898 144.515 165.898C144.788 165.807 145.153 165.625 145.426 165.352Z" fill="#FDFDFF"/>
<path d="M93.7645 313.605C88.5707 316.882 83.377 320.249 78.1832 323.525C75.9053 324.982 78.001 328.622 80.3701 327.166C85.5638 323.889 90.7576 320.522 95.9513 317.246C98.2293 315.881 96.0424 312.149 93.7645 313.605Z" fill="#FDFDFF"/>
</mask>
<g mask="url(#mask2_232_183)">
<path d="M144.877 153.065L185.698 289.761H73.5312C73.5312 289.761 77.1761 165.443 87.6547 153.065H144.877Z" fill="white"/>
</g>
<path d="M144.878 89.087L163.83 102.829L157.452 120.121L146.244 113.932L144.787 153.976L87.5642 154.158L96.4027 105.105L71.5273 97.9149L83.0083 73.7065C83.0083 73.7065 98.0428 77.984 102.325 78.53C105.97 78.9851 125.834 82.8074 125.834 82.8074C125.834 82.8074 129.843 87.7219 131.848 88.0859C135.492 88.723 139.137 84.6276 139.137 84.6276L144.878 89.087Z" fill="#670B78"/>
<mask id="mask3_232_183" style="mask-type:alpha" maskUnits="userSpaceOnUse" x="71" y="73" width="93" height="82">
<path d="M144.878 89.087L163.83 102.829L157.452 120.121L146.244 113.932L144.787 153.976L87.5642 154.158L96.4027 105.105L71.5273 97.9149L83.0083 73.7065C83.0083 73.7065 98.0428 77.984 102.325 78.53C105.97 78.9851 125.834 82.8074 125.834 82.8074C125.834 82.8074 129.843 87.7219 131.848 88.0859C135.492 88.723 139.137 84.6276 139.137 84.6276L144.878 89.087Z" fill="#670B78"/>
</mask>
<g mask="url(#mask3_232_183)">
<g opacity="0.7">
<path d="M83.0989 105.833C87.1992 99.4619 92.3018 92.1812 100.502 91.4531C102.872 91.2711 105.332 91.5441 107.701 91.8172C108.885 91.9992 110.07 92.0902 111.254 92.2722C112.439 92.3632 113.715 92.5452 114.899 92.4542C117.086 92.2722 118.179 90.179 118.817 88.3588C119.546 86.3566 119.637 84.1724 119.273 82.1702C118.453 77.8928 114.99 74.4345 110.708 73.3424C110.07 73.1604 109.797 74.1615 110.434 74.2525C114.079 75.1626 117.086 77.9838 118.088 81.6242C118.635 83.6264 118.635 85.7196 117.997 87.7218C117.724 88.7229 117.268 89.633 116.63 90.452C115.902 91.3621 114.99 91.5441 113.897 91.4531C109.25 91.2711 104.603 89.997 99.9558 90.543C96.1288 90.9981 92.7574 92.8183 90.0239 95.3665C86.9258 98.1878 84.5568 101.828 82.2788 105.286C81.9143 105.924 82.7344 106.379 83.0989 105.833Z" fill="white"/>
</g>
<g opacity="0.7">
<path d="M88.8417 126.674C92.2131 121.577 96.9513 117.482 102.418 114.66C105.061 113.295 107.977 112.203 110.892 111.475C114.173 110.656 117.544 110.565 120.915 110.292C124.378 110.11 127.749 109.473 130.756 107.835C133.399 106.288 135.677 104.103 137.59 101.737C141.782 96.4587 144.242 89.9971 147.978 84.3545C151.349 79.167 156.634 74.1615 163.194 73.8885C163.923 73.8885 164.743 73.8885 165.472 73.9795C166.11 74.0705 166.11 73.0694 165.472 72.9784C159.003 72.1593 152.989 76.1637 149.162 81.0782C144.88 86.5387 142.419 93.0914 138.501 98.8249C136.77 101.373 134.674 103.83 132.123 105.742C130.847 106.652 129.481 107.471 128.114 108.017C126.383 108.654 124.56 109.018 122.738 109.2C119.275 109.564 115.722 109.473 112.259 110.201C109.252 110.747 106.336 111.748 103.512 113.022C97.9536 115.571 92.9421 119.484 89.2062 124.398C88.7506 125.035 88.295 125.673 87.8394 126.31C87.5661 126.674 88.4773 127.129 88.8417 126.674Z" fill="white"/>
</g>
<g opacity="0.7">
<path d="M89.3877 157.434C94.6726 150.7 100.869 144.693 107.794 139.505C109.525 138.231 111.256 137.048 112.987 135.865C114.81 134.682 116.632 133.681 118.728 133.135C122.919 132.134 127.02 134.682 131.211 134.136C138.318 133.317 142.874 126.491 144.97 120.212C147.521 112.294 146.883 103.557 150.802 96.0943C154.264 89.5417 161.189 85.0822 168.479 84.3542C169.39 84.2631 170.21 84.2631 171.121 84.2631C171.759 84.2631 171.759 83.2621 171.121 83.2621C163.74 83.08 156.36 86.6294 151.895 92.5449C146.701 99.3706 146.61 108.198 144.879 116.298C144.15 119.939 142.874 123.306 140.779 126.4C138.956 129.13 136.314 131.679 133.125 132.68C131.302 133.226 129.48 133.317 127.657 133.044C125.471 132.68 123.375 131.952 121.188 131.952C116.814 131.77 112.987 134.5 109.616 136.866C102.6 141.781 96.2216 147.605 90.6634 154.158C90.0256 154.977 89.2966 155.796 88.6588 156.615C88.2943 157.252 88.9321 157.889 89.3877 157.434Z" fill="white"/>
</g>
<g opacity="0.7">
<path d="M145.425 134.045C140.961 134.409 135.493 135.046 133.033 139.323C131.666 141.599 131.575 144.329 130.938 146.877C130.573 148.06 130.117 149.243 129.297 150.244C128.568 151.155 127.657 151.792 126.655 152.429C124.286 153.794 121.552 154.249 118.91 154.704C118.272 154.795 118.545 155.796 119.183 155.614C123.648 154.795 129.024 153.612 131.12 149.152C132.304 146.786 132.304 144.056 133.124 141.599C133.489 140.416 134.036 139.323 134.947 138.504C135.767 137.685 136.678 137.048 137.68 136.593C140.141 135.501 142.874 135.228 145.516 135.046C146.063 134.955 146.063 133.954 145.425 134.045Z" fill="white"/>
</g>
<g opacity="0.7">
<path d="M70.9812 81.1689C73.897 80.1678 76.9039 79.2577 79.9108 78.8936C81.4598 78.7116 83.0088 78.7116 84.4667 78.8936C85.9246 79.0757 87.2914 79.5307 88.7493 79.8948C91.3006 80.5318 93.7608 80.9869 96.3121 80.3498C98.499 79.8037 100.504 78.6206 102.053 76.9825C103.875 75.1623 105.059 72.7961 105.333 70.2478C105.424 69.6108 104.422 69.6108 104.331 70.2478C103.784 74.5252 100.23 78.1656 96.1299 79.3487C93.6697 79.9858 91.2095 79.5307 88.7493 78.8936C87.3825 78.5296 86.0157 78.1656 84.649 77.8926C83.1911 77.7105 81.7332 77.6195 80.2753 77.8015C76.9039 78.0746 73.7147 79.1667 70.5256 80.1678C70.1611 80.4408 70.3434 81.3509 70.9812 81.1689Z" fill="white"/>
</g>
</g>
<path d="M170.391 369.302L172.395 378.949L174.035 389.142L216.861 388.141C218.592 388.141 219.139 385.775 217.59 385.047C215.585 384.046 198.364 381.953 195.357 379.859C195.357 379.859 188.888 374.854 188.705 366.845L170.391 369.302Z" fill="#93FF46"/>
<g opacity="0.35">
<path d="M146.152 113.932V103.193L151.164 116.571L146.152 113.932Z" fill="#A96CB7"/>
</g>
<g opacity="0.35">
<path d="M96.495 104.376L102.964 99.2798L92.9414 124.125L96.495 104.376Z" fill="#A96CB7"/>
</g>
<path d="M75.4476 74.3433L69.9805 82.8071L79.3657 75.5264L75.4476 74.3433Z" fill="#775A57"/>
<path d="M46.1959 39.6687C46.1048 39.6687 46.1048 39.6687 46.1959 39.6687C46.0136 39.6687 42.2778 38.8497 41.7311 38.5766C41.0933 38.3036 39.1798 35.9374 38.9975 35.6644C38.9064 35.5734 38.9975 35.4823 38.9975 35.4823C39.0886 35.3913 39.1798 35.4823 39.1798 35.4823C39.9998 36.5744 41.3666 38.1216 41.8222 38.3036C42.46 38.5766 46.1959 39.3957 46.1959 39.3957C46.287 39.3957 46.287 39.4867 46.287 39.5777C46.287 39.6687 46.1959 39.6687 46.1959 39.6687Z" fill="#513E3A"/>
<path d="M44.3747 41.6712C42.8257 41.2161 40.001 40.215 39.6366 40.124C39.181 40.033 37.3586 38.0308 36.9941 37.6668C36.903 37.5758 36.903 37.4848 36.9941 37.4848C37.0852 37.3938 37.1764 37.3938 37.1764 37.4848C38.1787 38.5769 39.3632 39.851 39.6366 39.851C40.0921 39.942 44.1925 41.3071 44.3747 41.3981C44.4658 41.3981 44.4658 41.4891 44.4658 41.5802C44.4658 41.5802 44.4658 41.6712 44.3747 41.6712Z" fill="#513E3A"/>
<path d="M42.5506 43.2182C41.5483 43.2182 38.0858 41.58 37.6302 41.398C37.5391 41.398 37.5391 41.307 37.5391 41.216C37.5391 41.125 37.6302 41.125 37.7213 41.125C38.8147 41.6711 41.8216 42.9452 42.5506 42.9452C42.6417 42.9452 42.7328 43.0362 42.7328 43.1272C42.7328 43.1272 42.6417 43.2182 42.5506 43.2182Z" fill="#513E3A"/>
<path d="M470.444 117.481C470.444 117.572 470.444 117.572 470.444 117.481C468.348 118.756 466.343 119.939 464.339 121.304C455.5 127.219 447.391 134.318 440.283 142.145C433.085 149.972 426.707 158.617 422.06 168.264C417.048 178.639 415.955 190.106 412.128 200.936C409.121 209.582 404.292 217.5 398.096 224.326C385.703 237.977 368.3 246.987 349.985 249.444C328.937 252.265 307.433 245.804 291.851 231.242C288.298 227.875 285.109 224.053 282.649 219.866C280.006 215.316 278.366 210.31 276.999 205.305C274.083 194.475 272.534 183.372 268.707 172.815C268.252 171.541 270.256 170.995 270.803 172.269C271.805 175.09 272.717 177.911 273.537 180.824C276.361 191.199 277.728 201.847 281.373 212.04C284.744 221.504 291.76 229.24 299.87 235.065C308.8 241.435 318.914 245.713 329.757 247.351C339.506 248.716 349.529 248.079 359.097 245.531C376.865 240.798 393.175 229.695 403.289 214.224C405.841 210.31 407.936 206.124 409.577 201.847C411.672 196.295 412.857 190.561 414.224 184.919C415.408 180.004 416.775 175.09 418.779 170.449C420.693 165.898 423.153 161.439 425.796 157.252C436.639 140.507 451.947 125.854 469.168 115.843L470.444 117.481Z" fill="#BB76CC"/>
<path d="M289.301 113.022L259.141 96.5493L260.507 108.653L282.467 133.317L298.595 117.208L289.301 113.022Z" fill="#E6B39D"/>
<g opacity="0.99">
<path d="M225.883 139.687C221.327 139.687 216.954 137.048 214.949 132.771L213.127 128.948C211.487 125.49 208.753 122.578 205.29 120.576C204.379 120.03 203.377 119.575 202.375 119.21C191.623 115.115 182.966 107.106 177.955 96.7313C172.852 86.0833 172.123 74.0701 176.041 62.876C179.868 51.682 187.796 42.6721 198.365 37.4846C207.933 32.7521 218.958 31.569 229.346 34.2083C232.535 35.0274 235.633 36.2105 238.549 37.6666C247.296 42.126 254.221 49.0427 258.504 57.8706C263.606 68.3366 264.426 80.1677 260.873 91.1798C259.324 96.0942 259.597 101.282 261.784 105.741L263.606 109.473C265.52 113.386 265.064 118.027 262.604 121.668L262.513 121.85L229.619 139.05C228.343 139.505 227.068 139.687 225.883 139.687ZM218.229 34.2083C211.578 34.2083 205.017 35.7554 199.003 38.6677C177.955 49.1337 169.025 74.8892 179.231 96.0943C184.06 106.105 192.443 113.841 202.921 117.845C204.015 118.3 205.017 118.755 206.019 119.301C209.664 121.395 212.58 124.489 214.402 128.311L216.225 132.134C218.503 136.957 224.061 139.323 229.163 137.776L261.602 120.758C263.697 117.572 264.062 113.568 262.422 110.11L260.599 106.378C258.321 101.555 257.957 96.0032 259.597 90.8157C263.06 80.0767 262.239 68.6096 257.319 58.5076C253.128 49.9528 246.476 43.2182 238.002 38.9407C235.177 37.4846 232.17 36.3925 229.072 35.5734C225.428 34.6633 221.783 34.2083 218.229 34.2083Z" fill="#670B78"/>
</g>
<path d="M220.324 43.4912C224.606 43.0361 228.98 43.7642 232.534 46.3125C234.447 47.6776 236.269 44.4923 234.356 43.1272C230.347 40.2149 225.153 39.3048 220.324 39.8508C217.955 40.0329 217.955 43.6732 220.324 43.4912Z" fill="#FDFDFF"/>
<path d="M240.827 50.9539C242.376 51.682 243.743 52.7741 244.381 54.4122C244.745 55.3223 245.656 55.9594 246.659 55.6863C247.57 55.4133 248.299 54.3212 247.934 53.4111C247.023 50.8629 245.201 48.9517 242.741 47.7686C241.829 47.3135 240.736 47.4956 240.189 48.4056C239.734 49.2247 239.916 50.4989 240.827 50.9539Z" fill="#FDFDFF"/>
<g opacity="0.99">
<path d="M248.478 116.663C243.558 109.928 237.635 104.012 233.17 97.0047C232.077 95.2755 231.075 93.5463 230.163 91.7262C230.072 91.5441 229.981 91.2711 229.89 91.0891V90.9981C229.981 91.1801 229.89 90.9981 229.89 90.9071C229.799 90.7251 229.708 90.452 229.617 90.27C229.435 89.815 229.343 89.3599 229.161 88.9049C228.888 87.8128 228.706 86.7207 228.614 85.7196C228.523 85.1735 228.523 84.6275 228.523 84.0814C228.523 83.8084 228.523 83.6264 228.523 83.3534C228.523 83.2623 228.523 83.0803 228.523 82.9893C228.523 82.8983 228.523 82.6253 228.523 82.6253C228.614 82.1702 228.706 81.7152 228.888 81.2602C228.888 81.1691 228.888 81.1691 228.979 81.0781C228.888 81.2602 228.979 80.9871 228.979 81.0781C228.979 80.9871 229.07 80.8961 229.07 80.8051C229.161 80.7141 229.161 80.6231 229.252 80.5321C229.252 80.5321 229.252 80.4411 229.343 80.4411C229.435 80.3501 229.252 80.5321 229.435 80.3501C229.526 80.2591 229.526 80.2591 229.617 80.168L229.708 80.077C229.617 80.168 229.799 79.986 229.708 80.077C229.799 79.986 229.89 79.986 229.89 79.986C230.072 79.895 229.89 79.986 230.072 79.895C230.163 79.895 230.255 79.895 230.346 79.804H230.437C230.528 79.804 230.619 79.804 230.71 79.804C230.801 79.804 230.801 79.804 230.892 79.804C231.075 79.804 230.801 79.804 230.984 79.804C232.168 79.986 233.444 80.6231 234.264 81.4422C235.175 82.2612 235.631 83.3534 235.904 84.5365C236.36 87.1757 235.539 89.997 234.173 92.1812C233.535 93.1823 232.715 94.1834 231.621 94.8205C230.71 95.3665 229.89 95.5485 228.797 95.5485C226.701 95.3665 224.514 94.0924 222.783 92.7273C220.961 91.2711 219.32 89.5419 218.318 87.5398C218.136 87.1757 217.954 86.9027 217.863 86.3566C217.863 86.2656 217.771 86.1746 217.771 86.0836C217.771 85.9926 217.68 85.7196 217.771 85.9016C217.771 85.7196 217.771 85.5376 217.771 85.3555C217.771 85.1735 217.771 85.3555 217.771 85.2645C217.771 85.1735 217.771 85.0825 217.863 85.0825C217.863 84.9915 217.954 84.9005 217.863 84.9915C217.863 84.9005 217.954 84.8095 217.954 84.8095C218.045 84.6275 217.863 84.9005 218.045 84.7185C218.136 84.6275 218.136 84.6275 218.227 84.5365C218.136 84.6275 218.318 84.4455 218.227 84.5365C218.227 84.5365 218.318 84.5365 218.318 84.4455C218.409 84.3545 218.5 84.3544 218.591 84.2634C218.409 84.3544 218.683 84.2634 218.774 84.1724C218.865 84.1724 218.956 84.0814 219.047 84.0814C219.32 83.9904 219.412 83.9904 219.776 83.9904C220.049 83.9904 220.232 83.9904 220.323 83.9904C220.414 83.9904 220.505 83.9904 220.596 84.0814H220.687H220.778C220.687 84.0814 220.687 84.0814 220.778 84.0814C220.961 84.1724 221.143 84.2634 221.234 84.3544C221.416 84.4455 221.143 84.2634 221.325 84.3544L221.416 84.4455C221.507 84.5365 221.598 84.6275 221.689 84.7185C221.872 84.9005 222.145 85.3555 222.327 85.7196C222.418 85.9016 222.327 85.6286 222.327 85.8106C222.327 85.9016 222.327 85.9016 222.418 85.9926C222.418 86.0836 222.51 86.1746 222.51 86.3566C222.601 86.6297 222.692 86.9027 222.692 87.1757C222.783 87.7218 222.874 88.0858 222.874 88.6319C222.965 89.724 222.874 90.9071 222.783 91.9992C222.601 93.0913 222.418 94.1834 222.054 95.1845C221.872 95.6395 221.781 96.0036 221.507 96.4586C221.416 96.6406 221.325 96.8226 221.234 97.0047C221.143 97.0957 221.143 97.1867 221.052 97.2777C220.961 97.4597 221.143 97.1867 221.052 97.2777C221.052 97.3687 220.961 97.3687 220.961 97.4597C219.503 99.0979 216.678 99.3709 214.673 98.8248C213.489 98.4608 212.395 97.8237 211.758 96.9137C211.302 96.3676 211.029 95.7305 210.938 95.0025C210.938 94.8205 210.938 94.9115 210.938 94.7294C210.938 94.6384 210.938 94.6384 210.938 94.5474C210.938 94.4564 210.938 94.7295 210.938 94.5474C210.938 94.4564 210.938 94.4564 210.938 94.3654C210.846 94.4564 210.938 94.2744 210.938 94.3654C210.938 94.3654 211.029 94.1834 210.938 94.2744C210.846 94.3654 211.029 94.1834 211.029 94.1834C210.938 94.2744 211.12 94.0924 211.211 94.0924C211.302 94.0924 211.302 94.0924 211.393 94.0014C211.666 93.9104 211.758 93.9104 211.94 93.9104C212.395 93.9104 213.033 93.9104 213.398 94.0014C214.218 94.0924 215.038 94.2744 215.767 94.5474H215.858C215.767 94.5474 215.949 94.5474 215.949 94.6384C216.131 94.7294 216.222 94.8205 216.405 95.0025C216.86 95.4575 217.134 95.9126 217.498 96.3676C218.318 97.6417 218.956 99.0069 219.503 100.372C219.958 101.464 220.414 102.556 220.869 103.648C221.598 105.286 222.236 106.925 222.783 108.563C224.059 112.476 224.97 116.481 226.245 120.394C226.883 122.123 227.521 123.943 228.432 125.581C228.797 126.401 229.981 125.672 229.617 124.853C227.612 121.031 226.61 116.845 225.516 112.749C224.879 110.565 224.332 108.472 223.512 106.379C223.147 105.377 222.783 104.376 222.327 103.466C222.145 103.011 222.054 102.738 221.781 102.192C221.234 100.827 220.596 99.3709 219.958 98.0058C219.32 96.6406 218.591 95.2755 217.589 94.1834C216.951 93.5463 216.313 93.1823 215.402 92.9093C214.309 92.6362 213.215 92.3632 212.122 92.4542C211.029 92.4542 209.844 92.8183 209.48 93.9104C209.297 94.5474 209.48 95.2755 209.753 95.9126C210.026 96.6406 210.391 97.3687 210.938 98.0058C212.851 100.19 216.131 100.736 218.865 100.008C219.958 99.7349 221.143 99.1889 221.963 98.2788C222.601 97.4597 223.056 96.5496 223.421 95.5485C224.241 93.2733 224.605 90.6341 224.332 88.2678C224.15 86.1746 223.512 83.7174 221.325 82.8073C219.685 82.1702 217.042 82.7163 216.587 84.7185C216.131 86.8117 217.68 88.9049 218.865 90.452C220.505 92.5452 222.601 94.3654 224.97 95.5485C227.157 96.6406 229.708 97.2777 231.986 96.1856C234.628 94.9115 236.268 91.9992 237.089 89.3599C237.909 86.6297 237.909 83.2623 235.995 80.9871C235.084 79.895 233.717 79.0759 232.35 78.6209C231.348 78.2569 230.163 78.2569 229.252 78.8029C227.43 79.895 227.248 82.5343 227.339 84.3544C227.43 86.6297 227.794 88.9959 228.614 91.0891C230.163 94.9115 232.533 98.4608 235.084 101.737C237.817 105.377 240.733 108.836 243.649 112.294C244.925 113.932 246.291 115.479 247.476 117.209C247.658 117.482 248.023 117.664 248.387 117.482C248.478 117.391 248.661 116.936 248.478 116.663Z" fill="#670B78"/>
</g>
<path d="M262.968 173.452C262.148 173.452 261.328 173.361 260.69 173.088C259.323 172.542 258.776 171.541 258.594 170.995C257.683 167.991 261.692 165.989 266.066 163.896C269.255 162.349 272.809 160.62 273.173 158.8C273.264 158.163 272.991 157.525 272.353 156.706C270.895 155.159 266.613 157.252 262.421 159.255C257.774 161.53 252.945 163.805 249.756 162.531C248.571 162.076 247.751 161.075 247.204 159.71C245.838 155.705 251.305 151.61 257.045 147.242C261.783 143.692 266.613 140.052 266.43 137.231C266.339 136.138 265.428 135.137 263.697 134.136C261.419 132.953 253.765 136.866 247.113 140.325C237.91 145.148 232.079 147.879 229.619 146.24C228.799 145.694 228.434 144.602 228.616 143.237C228.707 142.873 228.981 142.6 229.436 142.6C229.801 142.691 230.074 142.964 230.074 143.419C229.983 144.329 230.074 144.875 230.439 145.148C230.712 145.33 231.077 145.421 231.532 145.421C234.448 145.421 241.008 141.963 246.476 139.142C254.129 135.137 261.419 131.315 264.426 132.953C266.704 134.136 267.797 135.501 267.979 137.14C268.253 140.78 263.332 144.511 258.048 148.425C252.945 152.247 247.66 156.251 248.662 159.255C249.027 160.256 249.574 160.893 250.394 161.257C252.945 162.349 257.683 160.074 261.875 158.072C266.704 155.705 271.351 153.521 273.447 155.887C274.449 156.979 274.813 158.072 274.631 159.164C274.176 161.712 270.531 163.441 266.795 165.261C263.241 166.99 259.505 168.811 260.052 170.722C260.052 170.813 260.326 171.541 261.328 171.905C262.695 172.451 266.066 172.633 273.538 168.083C273.902 167.9 274.267 167.992 274.54 168.356C274.722 168.72 274.631 169.084 274.267 169.357C269.528 171.996 265.793 173.452 262.968 173.452Z" fill="#670B78"/>
<path d="M303.605 131.497C303.605 131.497 297.044 138.959 291.486 142.964C289.208 144.693 287.021 145.785 285.655 145.421C284.743 145.239 283.377 144.42 281.645 143.146C270.073 134.955 242.92 107.561 242.92 107.561C242.738 107.561 242.647 107.561 242.556 107.561C242.464 107.561 242.464 107.561 242.373 107.561C238.364 106.742 235.175 104.467 232.077 101.737C230.801 100.645 231.621 99.2796 232.806 99.2796C231.804 98.0965 230.892 96.8224 229.981 95.4573C228.706 93.6371 230.984 92.1809 232.259 94.0011C232.533 94.3652 232.806 94.7292 233.079 95.0932C232.897 94.0921 232.897 93 232.715 91.8169C232.441 89.7237 234.993 89.2687 235.357 91.2709C235.904 90.6338 236.997 90.5428 237.726 91.6349C239.184 94.0921 241.644 95.5483 244.196 96.6404C243.831 96.2763 243.558 95.8213 243.285 95.4573C241.736 93.3641 243.649 92.545 245.38 93.8191C247.385 95.3662 249.025 96.9134 250.756 98.6426L285.746 125.945L293.035 118.664L303.605 131.497Z" fill="#FCC4AC"/>
<path d="M363.564 350.737V368.028L348.347 367.482L345.613 350.737H363.564Z" fill="#FCC4AC"/>
<path d="M363.563 366.208V384.501L324.929 387.231C323.38 387.322 322.651 385.32 324.018 384.501C325.749 383.5 339.235 379.677 341.695 377.493C341.695 377.493 347.435 374.126 348.347 365.662L363.563 366.208Z" fill="#89E541"/>
<path d="M328.301 351.829L331.125 370.668H316.82L310.988 353.376L328.301 351.829Z" fill="#FCC4AC"/>
<g opacity="0.68">
<path d="M311.809 355.742L329.577 360.384L328.939 356.015L311.809 355.742Z" fill="#FE7D6B"/>
</g>
<path d="M325.841 77.8017L324.109 88.5407H331.672L329.394 76.4365L325.841 77.8017Z" fill="#670B78"/>
<path d="M327.297 78.0748C327.297 78.0748 327.935 84.3544 327.297 86.2656L338.049 84.3544L332.673 71.8862L327.297 78.0748Z" fill="#FCC4AC"/>
<g opacity="0.59">
<path d="M327.569 81.1689C327.569 81.1689 331.214 77.3466 331.578 74.3433L327.387 78.0746L327.569 81.1689Z" fill="#FE7D6B"/>
</g>
<path d="M283.56 242.982C283.742 244.348 284.471 247.806 285.473 252.538C291.578 280.478 302.694 355.742 302.694 355.742H331.032L313.629 247.078C313.629 247.078 321.92 229.695 328.845 207.216L341.055 355.742H369.211C369.211 355.742 358.094 235.429 364.291 212.859C370.487 190.288 353.994 158.799 353.994 158.799H324.836L325.201 163.35H306.613C306.613 163.35 293.309 201.3 286.931 225.145C284.653 233.7 283.195 240.434 283.56 242.982Z" fill="#670B78"/>
<path d="M315.451 356.652C314.996 356.652 314.631 356.379 314.54 355.924L291.578 241.071C291.578 240.889 291.578 240.798 291.578 240.616L314.54 164.897C314.722 164.442 315.178 164.169 315.633 164.26C316.089 164.442 316.362 164.897 316.271 165.352L293.4 240.798L316.362 355.469C316.453 355.924 316.18 356.47 315.633 356.561C315.633 356.652 315.542 356.652 315.451 356.652Z" fill="white"/>
<path d="M324.384 84.0811C324.384 84.0811 309.987 87.7214 307.253 92.7269C305.158 96.6403 287.754 116.116 287.754 116.116L303.244 133.772L310.26 127.401L306.069 165.261H358.826C358.826 165.261 355.182 130.587 356.275 124.671C357.368 118.755 360.011 97.2773 350.717 89.8146L324.384 84.0811Z" fill="#BB76CC"/>
<mask id="mask4_232_183" style="mask-type:alpha" maskUnits="userSpaceOnUse" x="287" y="84" width="72" height="82">
<path d="M324.384 84.0811C324.384 84.0811 309.987 87.7214 307.253 92.7269C305.158 96.6403 287.754 116.116 287.754 116.116L303.244 133.772L310.26 127.401L306.069 165.261H358.826C358.826 165.261 355.182 130.587 356.275 124.671C357.368 118.755 360.011 97.2773 350.717 89.8146L324.384 84.0811Z" fill="#670B78"/>
</mask>
<g mask="url(#mask4_232_183)">
<g opacity="0.7">
<path d="M365.751 87.9038H283.562V88.8139H365.751V87.9038Z" fill="#670B78"/>
</g>
<g opacity="0.7">
<path d="M368.029 100.645H285.84V101.555H368.029V100.645Z" fill="#670B78"/>
</g>
<g opacity="0.7">
<path d="M370.306 113.477H288.117V114.387H370.306V113.477Z" fill="#670B78"/>
</g>
<g opacity="0.7">
<path d="M372.583 126.218H290.395V127.128H372.583V126.218Z" fill="#670B78"/>
</g>
<g opacity="0.7">
<path d="M374.865 138.959H292.676V139.87H374.865V138.959Z" fill="#670B78"/>
</g>
<g opacity="0.7">
<path d="M377.142 151.701H294.953V152.611H377.142V151.701Z" fill="#670B78"/>
</g>
</g>
<path d="M331.488 74.3433C331.488 74.3433 332.672 77.4376 330.394 83.6262C329.666 85.7194 329.21 87.5396 329.028 89.0867C328.663 91.6349 330.85 93.8192 333.401 93.5461L351.898 91.2709C353.721 91.0889 354.632 88.9047 353.539 87.4485C349.985 82.8071 343.698 74.6163 342.513 71.886C340.691 67.9727 337.684 62.8762 332.764 62.2391C329.301 61.7841 325.474 62.6942 323.469 63.2402C322.832 63.4222 322.649 64.1503 323.014 64.6963L331.488 74.3433Z" fill="#670B78"/>
<path d="M323.199 63.604C323.199 63.604 326.205 69.6106 330.761 70.8847C330.761 70.8847 332.766 68.7005 333.859 70.4297C335.317 72.7959 332.766 74.343 331.581 74.252C331.581 74.252 327.572 80.8047 322.834 79.8946C317.914 78.9845 320.647 65.4242 323.199 63.604Z" fill="#FCC4AC"/>
<path d="M320.738 76.8005C319.463 76.8005 318.643 76.0724 318.643 75.9814C318.551 75.8904 318.551 75.7994 318.643 75.7084C318.734 75.6174 318.825 75.6174 318.916 75.7084C319.007 75.7994 320.647 77.2555 322.834 75.7084C322.925 75.6174 323.016 75.7084 323.107 75.7084C323.198 75.7994 323.107 75.8904 323.107 75.9814C322.105 76.5275 321.376 76.8005 320.738 76.8005Z" fill="#FE7D6B"/>
<g opacity="0.59">
<path d="M285.746 125.945L292.58 131.042L288.571 123.215L285.746 125.945Z" fill="#FE7D6B"/>
</g>
<path d="M310.35 127.311L315.452 120.94L308.801 141.235L310.35 127.311Z" fill="#A96CB7"/>
<g opacity="0.35">
<path d="M328.848 207.216C328.848 207.216 333.495 195.931 334.406 189.833L330.397 220.867L328.848 207.216Z" fill="#A96CB7"/>
</g>
<path d="M331.126 368.939V387.231L292.492 389.962C290.943 390.053 290.214 388.05 291.58 387.231C293.312 386.23 306.797 382.408 309.257 380.224C309.257 380.224 314.998 376.856 315.909 368.393L331.126 368.939Z" fill="#93FF46"/>
<path d="M327.022 69.1557L323.742 68.7917C323.56 68.7917 323.469 68.6096 323.469 68.5186C323.469 68.3366 323.651 68.2456 323.742 68.2456L327.022 68.6096C327.205 68.6096 327.296 68.7917 327.296 68.8827C327.296 68.9737 327.205 69.1557 327.022 69.1557Z" fill="#610008"/>
<path d="M327.117 71.1579C327.026 70.8849 325.295 68.7917 323.199 70.6119C323.017 70.7939 324.11 73.2511 327.117 71.1579Z" fill="white"/>
<path d="M324.93 71.087C324.943 70.3835 324.342 69.8014 323.588 69.7868C322.833 69.7722 322.21 70.3307 322.197 71.0342C322.183 71.7378 322.784 72.3199 323.538 72.3345C324.293 72.3491 324.916 71.7906 324.93 71.087Z" fill="#79020E"/>
<path d="M320.828 74.7074C320.281 74.7074 320.008 74.5254 319.735 74.2524C319.097 73.1602 320.555 70.885 320.737 70.612C320.828 70.521 320.919 70.521 321.01 70.521C321.101 70.612 321.101 70.703 321.101 70.794C320.646 71.4311 319.644 73.3423 320.099 74.0703C320.281 74.3434 320.555 74.4344 321.01 74.3434C321.101 74.3434 321.193 74.4344 321.193 74.5254C321.193 74.6164 321.101 74.7074 321.01 74.7074C320.919 74.7074 320.828 74.7074 320.828 74.7074Z" fill="#FE7D6B"/>
<g opacity="0.66">
<path d="M327.571 73.7974C327.754 74.7075 327.207 75.7086 326.205 75.8906C325.293 76.0726 324.291 75.5265 324.109 74.6164C323.927 73.7064 324.473 72.7053 325.476 72.5232C326.478 72.2502 327.389 72.8873 327.571 73.7974Z" fill="#FE9A8C"/>
</g>
<path d="M332.673 72.4317C331.762 71.9767 331.762 71.1576 331.762 71.1576C331.762 71.0666 331.853 70.9756 331.944 70.9756C332.035 70.9756 332.126 71.0666 332.126 71.1576C332.126 71.1576 332.126 71.7947 332.764 72.1587C332.855 72.1587 332.855 72.3407 332.855 72.4317C332.855 72.3407 332.764 72.4317 332.673 72.4317Z" fill="#FE7D6B"/>
<path d="M331.671 73.888C331.579 73.888 331.579 73.888 331.488 73.797C331.488 73.706 331.488 73.615 331.579 73.524C332.217 73.1599 332.673 72.7049 332.764 72.1588C333.037 71.3398 332.582 70.5207 332.491 70.5207C332.399 70.4297 332.491 70.3387 332.582 70.2477C332.673 70.1566 332.764 70.2477 332.855 70.3387C332.855 70.3387 333.402 71.2488 333.128 72.2499C332.946 72.9779 332.491 73.524 331.671 73.888Z" fill="#FE7D6B"/>
<g opacity="0.68">
<path d="M346.434 355.742L363.564 359.383V355.742H346.434Z" fill="#FE7D6B"/>
</g>
<path d="M242.377 98.5516C235.907 96.8224 235.27 91.3619 235.27 91.2709C235.27 91.1799 235.361 91.0889 235.452 91.0889C235.543 91.0889 235.634 91.1799 235.634 91.2709C235.634 91.3619 236.272 96.5494 242.377 98.1876C242.468 98.1876 242.559 98.2786 242.468 98.4606C242.559 98.5516 242.468 98.5516 242.377 98.5516Z" fill="#FE7D6B"/>
<path d="M240.369 101.191C234.173 100.099 232.988 95.1842 232.988 95.1842C232.988 95.0931 232.988 95.0021 233.171 94.9111C233.262 94.9111 233.353 94.9111 233.444 95.0931C233.444 95.1842 234.628 99.8256 240.551 100.827C240.642 100.827 240.733 100.918 240.733 101.009C240.551 101.1 240.46 101.191 240.369 101.191Z" fill="#FE7D6B"/>
<path d="M238.912 103.466C236.542 103.193 232.898 99.5529 232.807 99.4619C232.716 99.3709 232.716 99.2799 232.807 99.1889C232.898 99.0979 232.989 99.0979 233.08 99.1889C233.08 99.1889 236.725 102.829 239.003 103.102C239.094 103.102 239.185 103.193 239.185 103.284C239.094 103.375 239.003 103.466 238.912 103.466Z" fill="#FE7D6B"/>
<g opacity="0.59">
<path d="M291.579 142.964C289.301 144.693 287.114 145.785 285.747 145.421C284.836 145.239 283.47 144.42 281.738 143.146C283.834 141.872 288.117 139.961 291.579 142.964Z" fill="#FE9182"/>
</g>
</g>
<defs>
<clipPath id="clip0_232_183">
<rect width="554" height="396" fill="white"/>
</clipPath>
</defs>
</svg>
