<svg xmlns="http://www.w3.org/2000/svg" width="33" height="34" fill="none" viewBox="0 0 33 34"><path fill="#670B78" d="M18.264 15.0177H18.2871V14.9803L18.264 15.0177ZM18.264 15.0177H18.2871V14.9803L18.264 15.0177ZM18.264 15.0177H18.2871V14.9803L18.264 15.0177ZM18.264 15.0177H18.2871V14.9803L18.264 15.0177ZM18.264 15.0177H18.2871V14.9803L18.264 15.0177ZM18.264 15.0177H18.2871V14.9803L18.264 15.0177ZM18.264 15.0177H18.2871V14.9803L18.264 15.0177ZM18.264 15.0177H18.2871V14.9803L18.264 15.0177ZM18.264 15.0177H18.2871V14.9803L18.264 15.0177ZM18.264 15.0177H18.2871V14.9803L18.264 15.0177ZM18.264 15.0177H18.2871V14.9803L18.264 15.0177ZM18.264 15.0177H18.2871V14.9803L18.264 15.0177ZM18.264 15.0177H18.2871V14.9803L18.264 15.0177ZM18.264 15.0177H18.2871V14.9803L18.264 15.0177ZM18.264 15.0177H18.2871V14.9803L18.264 15.0177ZM18.264 15.0177H18.2871V14.9803L18.264 15.0177ZM16.7625 1.28174C13.7817 1.28174 10.8679 2.19243 8.38946 3.89864C5.91103 5.60486 3.97933 8.02997 2.83863 10.8673C1.69794 13.7046 1.39948 16.8268 1.981 19.8389C2.56252 22.851 3.99791 25.6178 6.10564 27.7894C8.21337 29.961 10.8988 31.4398 13.8223 32.039C16.7458 32.6381 19.7761 32.3306 22.53 31.1554C25.2839 29.9801 27.6376 27.9899 29.2937 25.4363C30.9497 22.8828 31.8336 19.8806 31.8336 16.8095C31.8292 12.6927 30.24 8.74575 27.4146 5.8347C24.5891 2.92364 20.7583 1.28624 16.7625 1.28174ZM12.9939 23.7999C12.993 23.8688 12.9659 23.9345 12.9183 23.9829C12.8708 24.0312 12.8066 24.0583 12.7398 24.0583H9.83581C9.7693 24.0583 9.7055 24.0311 9.65847 23.9827C9.61144 23.9342 9.58501 23.8685 9.58501 23.7999V13.7461C9.58458 13.7119 9.59074 13.678 9.60315 13.6462C9.61556 13.6145 9.63396 13.5856 9.65729 13.5612C9.68063 13.5369 9.70842 13.5175 9.73907 13.5043C9.76971 13.4911 9.8026 13.4843 9.83581 13.4843H12.7398C12.7732 13.4843 12.8062 13.4911 12.8371 13.5043C12.8679 13.5174 12.8959 13.5367 12.9195 13.561C12.9431 13.5853 12.9618 13.6142 12.9746 13.646C12.9873 13.6777 12.9939 13.7118 12.9939 13.7461V23.7999ZM11.1855 12.1413C10.8246 12.1413 10.4718 12.0311 10.1717 11.8245C9.87155 11.6179 9.63765 11.3242 9.49953 10.9807C9.3614 10.6371 9.32526 10.2591 9.39568 9.89433C9.46609 9.52961 9.6399 9.19459 9.89511 8.93164C10.1503 8.66869 10.4755 8.48961 10.8295 8.41707C11.1835 8.34452 11.5504 8.38175 11.8839 8.52406C12.2173 8.66637 12.5023 8.90736 12.7029 9.21656C12.9034 9.52575 13.0104 9.88927 13.0104 10.2611C13.0108 10.5082 12.9639 10.7529 12.8724 10.9812C12.7808 11.2095 12.6464 11.417 12.4769 11.5916C12.3073 11.7663 12.106 11.9048 11.8844 11.9991C11.6628 12.0935 11.4253 12.1418 11.1855 12.1413ZM25.2831 23.7999C25.2822 23.8688 25.2551 23.9345 25.2075 23.9829C25.16 24.0312 25.0958 24.0583 25.029 24.0583H22.125C22.0921 24.0583 22.0595 24.0517 22.029 24.0387C21.9986 24.0257 21.971 24.0067 21.9477 23.9827C21.9244 23.9587 21.9059 23.9302 21.8933 23.8988C21.8807 23.8675 21.8742 23.8339 21.8742 23.7999V18.3973C21.8742 16.9761 21.3825 16.0173 20.1483 16.0173C19.7637 16.0196 19.3892 16.1442 19.0761 16.3743C18.763 16.6044 18.5266 16.9286 18.3993 17.3025C18.3123 17.5789 18.2743 17.8691 18.2871 18.1593V23.7999C18.2871 23.8694 18.2603 23.936 18.2127 23.9851C18.165 24.0342 18.1004 24.0617 18.033 24.0617H15.129C15.0958 24.0617 15.0629 24.0549 15.0323 24.0417C15.0016 24.0286 14.9738 24.0092 14.9505 23.9849C14.9272 23.9605 14.9088 23.9316 14.8963 23.8999C14.8839 23.8681 14.8778 23.8342 14.8782 23.7999C14.8782 22.3651 14.9145 15.3985 14.8782 13.7597C14.8778 13.7255 14.8839 13.6916 14.8963 13.6598C14.9088 13.6281 14.9272 13.5992 14.9505 13.5748C14.9738 13.5505 15.0016 13.5311 15.0323 13.5179C15.0629 13.5047 15.0958 13.4979 15.129 13.4979H18.0264C18.0599 13.4975 18.0931 13.5039 18.1242 13.5169C18.1552 13.5299 18.1834 13.5492 18.2071 13.5736C18.2308 13.598 18.2495 13.627 18.2621 13.659C18.2747 13.691 18.281 13.7252 18.2805 13.7597V14.9939C18.5892 14.4419 19.0387 13.9874 19.5803 13.6799C20.1219 13.3725 20.7349 13.2237 21.3528 13.2497C23.5935 13.2497 25.2765 14.7593 25.2765 18.0097L25.2831 23.7999ZM18.2871 15.0279V14.9905L18.264 15.0279H18.2871ZM18.264 15.0279H18.2871V14.9905L18.264 15.0279ZM18.264 15.0279H18.2871V14.9905L18.264 15.0279ZM18.264 15.0279H18.2871V14.9905L18.264 15.0279ZM18.264 15.0279H18.2871V14.9905L18.264 15.0279ZM18.264 15.0279H18.2871V14.9905L18.264 15.0279ZM18.264 15.0279H18.2871V14.9905L18.264 15.0279ZM18.264 15.0279H18.2871V14.9905L18.264 15.0279ZM18.264 15.0279H18.2871V14.9905L18.264 15.0279ZM18.264 15.0279H18.2871V14.9905L18.264 15.0279ZM18.264 15.0279H18.2871V14.9905L18.264 15.0279ZM18.264 15.0279H18.2871V14.9905L18.264 15.0279ZM18.264 15.0279H18.2871V14.9905L18.264 15.0279ZM18.264 15.0279H18.2871V14.9905L18.264 15.0279ZM18.264 15.0279H18.2871V14.9905L18.264 15.0279Z"/></svg>