<svg width="18" height="23" viewBox="0 0 18 23" fill="none" xmlns="http://www.w3.org/2000/svg">
<path d="M13.1032 0.22998C11.9885 0.23348 10.9206 0.660081 10.1324 1.41658C9.34416 2.17308 8.89966 3.19808 8.89596 4.26798V4.31358C6.14516 5.33828 4.12946 7.35218 3.49456 9.70038L3.41016 10.011H4.91566L4.97546 9.84218C5.53836 8.06288 7.06326 6.57568 9.17386 5.71978C9.44936 6.40598 9.91486 7.00698 10.5201 7.45788C11.1253 7.90878 11.8474 8.19248 12.6083 8.27838C13.3693 8.36428 14.1402 8.24908 14.8379 7.94528C15.5357 7.64148 16.1337 7.16058 16.5675 6.55438C17.0014 5.94828 17.2545 5.23998 17.2996 4.50588C17.3448 3.77178 17.1802 3.03978 16.8237 2.38888C16.4671 1.73798 15.9321 1.19288 15.2765 0.812381C14.6208 0.431981 13.8694 0.23058 13.1032 0.22998ZM13.1032 6.90318C12.4517 6.89938 11.8226 6.67498 11.3268 6.26938C10.8309 5.86388 10.5001 5.30338 10.3928 4.68668C10.3718 4.55308 10.3612 4.41828 10.3611 4.28318C10.3615 3.76238 10.5227 3.25338 10.8244 2.82058C11.1261 2.38768 11.5548 2.05038 12.0562 1.85138C12.5576 1.65228 13.1092 1.60038 13.6413 1.70218C14.1735 1.80398 14.6622 2.05498 15.0457 2.42328C15.4293 2.79168 15.6904 3.26088 15.7962 3.77168C15.9019 4.28248 15.8475 4.81198 15.6397 5.29308C15.432 5.77418 15.0803 6.18538 14.6291 6.47468C14.178 6.76398 13.6476 6.91838 13.105 6.91838L13.1032 6.90318Z" fill="white"/>
<path d="M14.1802 4.26728C14.1805 4.47168 14.1177 4.67158 13.9996 4.84168C13.8816 5.01188 13.7136 5.14448 13.5169 5.22298C13.3202 5.30138 13.1038 5.32208 12.8948 5.28248C12.6859 5.24278 12.494 5.14448 12.3432 5.00008C12.1925 4.85568 12.0898 4.67158 12.0482 4.47118C12.0065 4.27068 12.0277 4.06288 12.1091 3.87398C12.1905 3.68508 12.3285 3.52368 12.5056 3.41008C12.6826 3.29648 12.8908 3.23578 13.1038 3.23578C13.3888 3.23628 13.6621 3.34498 13.8638 3.53828C14.0655 3.73158 14.1792 3.99368 14.1802 4.26728Z" fill="white"/>
<path d="M7.57049 11.3528C7.56959 11.5391 7.49189 11.7174 7.35449 11.849C7.21709 11.9805 7.03109 12.0546 6.83709 12.0551H1.25969C1.16069 12.0597 1.06179 12.045 0.968887 12.0119C0.875987 11.9787 0.791088 11.9278 0.719288 11.8622C0.647588 11.7966 0.590388 11.7177 0.551388 11.6303C0.512288 11.5429 0.492188 11.4488 0.492188 11.3536C0.492188 11.2585 0.512288 11.1644 0.551388 11.077C0.590388 10.9895 0.647588 10.9106 0.719288 10.845C0.791088 10.7794 0.875987 10.7285 0.968887 10.6954C1.06179 10.6622 1.16069 10.6475 1.25969 10.6522H6.83709C7.03099 10.6522 7.21699 10.7259 7.35439 10.8572C7.49189 10.9885 7.56959 11.1667 7.57049 11.3528Z" fill="white"/>
<path d="M13.1032 14.3966C12.2523 14.3964 11.4213 14.6438 10.7198 15.1061C10.0184 15.5684 9.47936 16.2239 9.17386 16.9861C7.06326 16.1336 5.53836 14.6396 4.97376 12.8705L4.91396 12.7017H3.41016L3.49456 13.014C4.12946 15.3655 6.14516 17.3727 8.89596 18.4008V18.4447C8.89666 19.2432 9.14406 20.0236 9.60676 20.6872C10.0695 21.3508 10.7268 21.8678 11.4956 22.1729C12.2644 22.478 13.1102 22.5575 13.9261 22.4013C14.742 22.2452 15.4913 21.8603 16.0794 21.2954C16.6674 20.7306 17.0677 20.0111 17.2298 19.2279C17.3918 18.4447 17.3083 17.6329 16.9898 16.8953C16.6712 16.1576 16.132 15.5272 15.4402 15.0836C14.7484 14.64 13.9351 14.4033 13.1032 14.4033V14.3966ZM13.1032 21.0698C12.3761 21.0689 11.679 20.7913 11.1647 20.298C10.6504 19.8047 10.3608 19.1358 10.3594 18.4379C10.3593 18.3058 10.3693 18.1737 10.3893 18.0429V18.0108C10.4739 17.5148 10.7046 17.0524 11.0542 16.6781C11.4038 16.3039 11.8577 16.0335 12.3623 15.8989C12.8669 15.7643 13.401 15.7712 13.9017 15.9186C14.4024 16.066 14.8486 16.3478 15.1878 16.7308C15.5269 17.1138 15.7448 17.582 15.8156 18.08C15.8865 18.578 15.8074 19.0851 15.5876 19.5413C15.3679 19.9976 15.0167 20.3839 14.5755 20.6548C14.1343 20.9256 13.6216 21.0696 13.0979 21.0698H13.1032Z" fill="white"/>
<path d="M14.1802 18.4381C14.1798 18.6424 14.1164 18.842 13.9979 19.0117C13.8794 19.1813 13.7112 19.3135 13.5145 19.3914C13.3178 19.4694 13.1014 19.4896 12.8927 19.4495C12.684 19.4095 12.4924 19.3109 12.342 19.1664C12.1916 19.0218 12.0893 18.8377 12.0479 18.6374C12.0065 18.437 12.0279 18.2294 12.1094 18.0407C12.191 17.852 12.3289 17.6908 12.5059 17.5773C12.6829 17.4639 12.8909 17.4033 13.1038 17.4033C13.3894 17.4038 13.6632 17.513 13.865 17.707C14.0668 17.901 14.1802 18.164 14.1802 18.4381Z" fill="white"/>
</svg>
