<svg width="28" height="28" viewBox="0 0 28 28" fill="none" xmlns="http://www.w3.org/2000/svg">
<path d="M14 0C11.2311 0 8.52431 0.821086 6.22202 2.35943C3.91973 3.89777 2.12532 6.08427 1.06569 8.64243C0.00606596 11.2006 -0.271181 14.0155 0.269012 16.7313C0.809205 19.447 2.14258 21.9416 4.10051 23.8995C6.05845 25.8574 8.55301 27.1908 11.2687 27.731C13.9845 28.2712 16.7994 27.9939 19.3576 26.9343C21.9157 25.8747 24.1022 24.0803 25.6406 21.778C27.1789 19.4757 28 16.7689 28 14C28 10.287 26.525 6.72601 23.8995 4.1005C21.274 1.475 17.713 0 14 0ZM12 19.59L7.00001 14.59L8.59001 13L12 16.41L19.41 9L21.006 10.586L12 19.59Z" fill="#F1E7F2"/>
</svg>
