<svg xmlns="http://www.w3.org/2000/svg" width="35" height="34" fill="none" viewBox="0 0 35 34"><path fill="#670B78" d="M17.4986 2.08496C9.05399 2.08496 2.18359 8.64306 2.18359 16.704C2.18359 24.7653 9.05399 31.3237 17.4986 31.3237C25.9437 31.3237 32.8141 24.7653 32.8141 16.704C32.8138 8.64306 25.9434 2.08496 17.4986 2.08496ZM25.6497 12.8912C25.2436 13.4717 24.7386 13.9832 24.1557 14.4046C24.1581 14.4894 24.1598 14.5742 24.1598 14.659C24.1598 18.9224 20.7612 23.3321 15.0737 23.3321C13.3381 23.3329 11.6388 22.8578 10.1778 21.9634C10.1257 21.9316 10.0865 21.8839 10.0665 21.8281C10.0465 21.7723 10.047 21.7117 10.0679 21.6562C10.0882 21.6003 10.1279 21.5528 10.1805 21.5216C10.233 21.4903 10.2952 21.4772 10.3566 21.4844C10.5964 21.5108 10.8341 21.5238 11.0632 21.5238C12.1788 21.5238 13.242 21.2375 14.1752 20.6904C13.6131 20.5609 13.0955 20.2955 12.672 19.9197C12.2486 19.5439 11.9336 19.0704 11.7575 18.5447C11.743 18.5015 11.7406 18.4555 11.7504 18.4112C11.7602 18.3669 11.7818 18.3257 11.8132 18.2918C11.8447 18.2578 11.8849 18.2322 11.9299 18.2177C11.9749 18.2032 12.0231 18.2002 12.0697 18.209C12.1211 18.2184 12.1728 18.2265 12.2242 18.2333C11.2746 17.6557 10.6585 16.6401 10.6585 15.5157V15.4784C10.6585 15.4329 10.671 15.3883 10.6946 15.3489C10.7182 15.3094 10.7522 15.2766 10.7933 15.2535C10.8343 15.2305 10.8809 15.2181 10.9285 15.2175C10.976 15.2169 11.023 15.2282 11.0646 15.2502C11.1835 15.3131 11.3068 15.3677 11.4334 15.4136C10.9475 14.8404 10.6828 14.1251 10.6837 13.3877C10.6837 12.8192 10.8414 12.2596 11.1398 11.7697C11.162 11.7332 11.1931 11.7023 11.2305 11.6798C11.268 11.6573 11.3106 11.6438 11.3547 11.6405C11.3988 11.6371 11.443 11.6441 11.4837 11.6607C11.5244 11.6773 11.5603 11.703 11.5882 11.7358C13.0426 13.438 15.1568 14.509 17.431 14.7063C17.4149 14.577 17.4069 14.4468 17.407 14.3166C17.407 12.5425 18.9193 11.0992 20.7782 11.0992C21.6551 11.0992 22.5036 11.4293 23.1295 12.0093C23.7411 11.8793 24.3273 11.6574 24.8661 11.3518C24.8795 11.3115 24.903 11.275 24.9345 11.2453C24.966 11.2156 25.0046 11.1936 25.047 11.1813C25.0893 11.169 25.1342 11.1667 25.1777 11.1746C25.2212 11.1825 25.262 11.2004 25.2967 11.2267C25.3313 11.2529 25.3588 11.2869 25.3767 11.3255C25.3946 11.3642 25.4024 11.4064 25.3994 11.4486C25.3964 11.4908 25.3828 11.5316 25.3596 11.5676C25.3364 11.6037 25.3044 11.6338 25.2664 11.6554C25.1325 12.0561 24.9169 12.4276 24.632 12.7485C24.8637 12.6817 25.0908 12.6011 25.312 12.5073C25.3662 12.4845 25.4267 12.479 25.4844 12.4918C25.5421 12.5046 25.5938 12.5349 25.6319 12.5782C25.67 12.6215 25.6923 12.6754 25.6955 12.7319C25.6987 12.7883 25.6827 12.8443 25.6497 12.8912Z"/></svg>